<svg width="460" height="87" viewBox="0 0 460 87" fill="none" xmlns="http://www.w3.org/2000/svg">
<path d="M33.8175 84.4538L33.8101 85.9145C33.8101 86.1666 33.6099 86.3668 33.3578 86.3668H30.9036C30.6515 86.3668 30.4513 86.1666 30.4513 85.9145L30.4587 84.4538C30.4735 74.8669 30.4884 64.4496 27.1148 57.1982C24.5494 55.4558 13.8428 49.0719 1.25305 54.0396C1.00096 54.1286 0.711791 53.9951 0.630231 53.7282C0.407797 52.9349 0.207606 52.1341 0.0296579 51.3185C-0.0222435 51.0961 0.103803 50.8588 0.318823 50.7773C9.04567 47.4556 16.8976 48.9162 22.3028 50.9774C21.0942 50.0655 19.7077 49.324 18.1136 48.7976C6.63597 45.0384 1.92777 38.6546 0.0296579 33.5386C0 33.457 -0.00741449 33.3606 0.00741449 33.2716C0.348481 31.6627 0.785936 30.0908 1.30495 28.5634C1.46807 28.0963 2.1502 28.1779 2.2021 28.6598C2.62473 32.4338 4.90098 39.5146 15.4518 44.1858C14.5769 38.054 15.4889 32.7823 16.3045 28.0518C17.4537 21.4011 18.3953 16.0181 14.5324 9.97533C14.4063 9.77513 14.4434 9.51563 14.6214 9.35992C15.259 8.84091 15.9041 8.33672 16.5714 7.85478C16.7864 7.69908 17.0978 7.75839 17.2387 7.98083C21.9395 15.2025 20.805 21.7347 19.6113 28.6228C18.7067 33.8203 17.7799 39.1884 19.0997 45.5945C19.1145 45.6019 19.1368 45.6093 19.159 45.6093C33.862 50.451 33.8397 68.5127 33.8175 84.4538Z" fill="white"/>
<path d="M82.9977 51.4148C82.8198 52.2155 82.6196 53.0163 82.3971 53.8096C82.323 54.0692 82.0338 54.21 81.7817 54.1136C68.3541 49.0866 56.6095 55.4482 53.7698 57.1981C52.6205 62.5439 52.628 68.2234 52.6354 72.2124V85.9144C52.6354 86.1665 52.4352 86.3667 52.1831 86.3667H49.7289C49.4768 86.3667 49.2766 86.1665 49.2766 85.9144V72.2198C49.2618 65.569 49.247 54.603 54.185 47.018C51.3972 43.7927 48.7798 38.7138 48.9207 33.0268C49.0319 28.2297 51.1451 23.8329 55.008 20.3184C60.9693 14.8984 61.8961 10.0419 61.5624 5.571C61.5402 5.20027 61.9331 4.95559 62.252 5.13354C63.1046 5.61548 63.9425 6.11967 64.7581 6.66093C64.8915 6.7499 64.9731 6.89078 64.9731 7.05389C64.9731 11.6731 63.4902 17.1524 57.2694 22.8023C54.0441 25.7236 52.3685 29.1936 52.2721 33.101C52.1683 37.5645 54.1183 41.5906 56.2981 44.3191C57.5586 42.9993 59.0341 41.8427 60.7839 40.9307C65.025 38.7138 69.0511 37.7944 72.5952 36.9936C77.8965 35.7776 80.7363 34.9917 81.8559 31.885C82.0116 31.4476 82.6344 31.4698 82.7456 31.9147C83.0348 33.0787 83.2794 34.2576 83.4722 35.4514C83.4945 35.5923 83.4574 35.7331 83.361 35.8369C81.018 38.5136 77.2515 39.3662 73.344 40.256C69.9927 41.0197 66.1965 41.8872 62.3335 43.8965C58.7894 45.7501 56.5354 48.9309 55.1118 52.6233C60.517 49.9838 70.8973 46.5286 82.7011 50.8661C82.9236 50.9551 83.0496 51.1923 82.9977 51.4148Z" fill="white"/>
<path d="M52.4426 1.1519C52.7837 1.24088 52.9023 1.6635 52.6502 1.91559C51.4639 3.11674 49.4842 6.3198 48.8392 14.4906C48.2089 22.5501 44.4424 28.8302 41.4099 33.8794C39.2226 37.52 37.3171 40.6934 37.1317 43.5183C40.1865 48.5305 43.2116 54.9885 43.2116 65.4355V85.9143C43.2116 86.1664 43.0114 86.3666 42.7593 86.3666H40.3051C40.053 86.3666 39.8528 86.1664 39.8528 85.9143V65.4281C39.8528 53.8022 35.9157 47.7297 32.4383 42.369C28.3678 36.089 24.5122 30.1574 29.1685 17.8345C32.6756 8.56639 33.5802 3.32435 33.7878 0.781177C33.8026 0.573571 33.9583 0.403038 34.1659 0.365966C34.9889 0.217676 35.8267 0.0990442 36.6646 0.00265589C36.9463 -0.0270021 37.191 0.195433 37.1762 0.484598C37.0279 3.32435 36.1085 8.96677 32.3049 19.0282C28.4642 29.1935 30.9035 33.7905 34.6182 39.5738C35.4931 37.2011 36.9463 34.784 38.5256 32.1519C41.5211 27.1619 44.9169 21.5047 45.4878 14.2311C46.0513 6.97227 47.6677 2.94621 49.2544 0.714447C49.3582 0.566157 49.5435 0.499427 49.7141 0.536499C50.6483 0.707032 51.5529 0.914638 52.4426 1.1519Z" fill="white"/>
<path d="M58.3224 39.4849C61.9629 38.6916 64.2688 35.0955 63.4755 31.455L63.3198 30.7358C63.2679 30.506 63.038 30.3577 62.8082 30.4022L62.089 30.5579C58.4484 31.3512 56.1425 34.9472 56.9359 38.5878L57.0916 39.3144C57.1435 39.5442 57.3733 39.6925 57.6032 39.648L58.3224 39.4849Z" fill="white"/>
<path d="M56.7654 57.91L56.1278 58.2733C55.9202 58.3919 55.8534 58.6588 55.9721 58.8665L56.3354 59.5041C58.1964 62.7294 62.3263 63.8342 65.5516 61.9731L66.1892 61.6098C66.3968 61.4912 66.4636 61.2243 66.3449 61.0167L65.9816 60.379C64.1206 57.1537 59.9981 56.0489 56.7654 57.91Z" fill="white"/>
<path d="M45.1247 45.0753L44.4351 44.8232C44.2127 44.7416 43.9606 44.8602 43.8791 45.0827L43.627 45.7722C42.3591 49.2793 44.1682 53.1422 47.6753 54.4101L48.3648 54.6622C48.5873 54.7437 48.8394 54.6251 48.9209 54.4027L49.173 53.7131C50.4409 50.2135 48.6243 46.3431 45.1247 45.0753Z" fill="white"/>
<path d="M47.727 37.5201L47.8308 36.7935C47.8679 36.5562 47.6974 36.3412 47.4601 36.3041L46.7335 36.2003C43.0411 35.6739 39.6304 38.2393 39.104 41.9317L39.0002 42.6583C38.9631 42.8956 39.1336 43.1106 39.3709 43.1477L40.0975 43.2515C43.7899 43.7705 47.2006 41.2051 47.727 37.5201Z" fill="white"/>
<path d="M42.0031 18.6502L42.1069 17.9235C42.144 17.6863 41.9809 17.4638 41.7436 17.4342L41.017 17.3304C37.332 16.7817 33.8991 19.3323 33.3578 23.0173L33.254 23.7439C33.217 23.9812 33.3801 24.2036 33.6173 24.2333L34.344 24.3371C38.029 24.8857 41.4545 22.3352 42.0031 18.6502Z" fill="white"/>
<path d="M25.3428 34.3096L24.6533 34.5617C21.1611 35.8518 19.3742 39.7296 20.6643 43.2292L20.9164 43.9188C20.998 44.1412 21.25 44.2598 21.4725 44.1783L22.162 43.9262C25.6542 42.6361 27.4411 38.7583 26.151 35.2586L25.8989 34.5691C25.8174 34.3392 25.5727 34.228 25.3428 34.3096Z" fill="white"/>
<path d="M15.4815 26.4798C16.0079 22.7874 13.4425 19.3768 9.75009 18.8503L9.02347 18.7465C8.7862 18.7095 8.57118 18.88 8.53411 19.1172L8.43031 19.8439C7.90388 23.5363 10.4693 26.9469 14.1543 27.4734L14.8809 27.5772C15.1182 27.6143 15.3332 27.4437 15.3703 27.2065L15.4815 26.4798Z" fill="white"/>
<path d="M10.625 38.4171C13.2571 35.785 13.2571 31.5068 10.625 28.8747L10.106 28.3557C9.93546 28.1851 9.66112 28.1851 9.498 28.3557L8.97899 28.8747C6.34685 31.5068 6.34685 35.785 8.97899 38.4171L9.498 38.9362C9.66854 39.1067 9.94287 39.1067 10.106 38.9362L10.625 38.4171Z" fill="white"/>
<path d="M24.0304 6.8093L23.3408 6.56462C23.1184 6.48306 22.8663 6.60169 22.7848 6.82413L22.5401 7.51367C21.287 11.0207 23.111 14.8837 26.6255 16.1367L27.315 16.3814C27.5374 16.463 27.7895 16.3443 27.8711 16.1219L28.1158 15.4323C29.3688 11.9253 27.5449 8.06235 24.0304 6.8093Z" fill="white"/>
<path d="M43.612 9.70829L44.3238 9.88624C44.5537 9.94555 44.7909 9.80468 44.8502 9.57483L45.0282 8.86304C45.9402 5.25218 43.7529 1.58201 40.142 0.670031L39.4303 0.492083C39.2004 0.432767 38.9631 0.573642 38.9038 0.803491L38.7259 1.51528C37.8065 5.12614 40.0012 8.79631 43.612 9.70829Z" fill="white"/>
<path d="M81.1294 42.688C78.1043 40.5081 73.8854 41.1977 71.713 44.2228L71.283 44.8159C71.1421 45.0087 71.1866 45.283 71.3793 45.4165L71.9725 45.8466C74.9976 48.0264 79.2165 47.3369 81.3889 44.3118L81.8189 43.7186C81.9598 43.5258 81.9153 43.2515 81.7226 43.118L81.1294 42.688Z" fill="white"/>
<path d="M15.3259 60.3862L14.9625 61.0238C14.8439 61.2314 14.9106 61.4983 15.1182 61.617L15.7559 61.9803C18.9812 63.8413 23.1111 62.7366 24.9721 59.5113L25.3354 58.8736C25.454 58.666 25.3873 58.3991 25.1797 58.2804L24.5421 57.9097C21.3168 56.0487 17.1943 57.1534 15.3259 60.3862Z" fill="white"/>
<path d="M71.0902 54.1432L70.371 54.2766C70.1337 54.3211 69.978 54.5435 70.0225 54.7808L70.1559 55.5C70.8158 59.1702 74.3229 61.6021 77.9931 60.9422L78.7123 60.8088C78.9495 60.7643 79.1052 60.5419 79.0607 60.3046L78.9273 59.5854C78.2674 55.9226 74.7603 53.4833 71.0902 54.1432Z" fill="white"/>
<path d="M4.55255 59.5854L4.41908 60.3046C4.3746 60.5419 4.5303 60.7643 4.76757 60.8088L5.48677 60.9422C9.15694 61.6021 12.664 59.1628 13.3239 55.5L13.4573 54.7808C13.5018 54.5435 13.3461 54.3211 13.1089 54.2766L12.3897 54.1432C8.71949 53.4833 5.21243 55.9226 4.55255 59.5854Z" fill="white"/>
<path d="M57.8627 24.5669L57.3289 25.0637C57.151 25.2268 57.1435 25.5011 57.3067 25.6716L57.8034 26.2055C60.3392 28.934 64.6099 29.0897 67.3385 26.554L67.8723 26.0572C68.0502 25.8941 68.0577 25.6197 67.8945 25.4492L67.3978 24.9154C64.862 22.1943 60.5913 22.0311 57.8627 24.5669Z" fill="white"/>
<path d="M72.8548 15.6844L73.0995 14.9949C73.181 14.7725 73.0624 14.5204 72.84 14.4388L72.1504 14.1941C68.6434 12.9411 64.7804 14.765 63.5274 18.2795L63.2827 18.9691C63.2011 19.1915 63.3198 19.4436 63.5422 19.5251L64.2318 19.7698C67.7388 21.0155 71.6018 19.1915 72.8548 15.6844Z" fill="white"/>
<path d="M59.3381 7.55812V6.82408C59.3381 6.58682 59.1454 6.39404 58.9081 6.39404H58.1741C54.4446 6.39404 51.4269 9.41174 51.4269 13.1412V13.8753C51.4269 14.1125 51.6197 14.3053 51.8569 14.3053H52.591C56.3204 14.3053 59.3381 11.2802 59.3381 7.55812Z" fill="white"/>
<path d="M70.9938 33.4125L71.0976 34.1391C71.1346 34.3764 71.3497 34.5395 71.5869 34.5024L72.3135 34.3986C75.9985 33.8648 78.564 30.4467 78.0301 26.7617L77.9263 26.0351C77.8892 25.7978 77.6742 25.6347 77.437 25.6718L76.7103 25.7756C73.0253 26.302 70.4673 29.7275 70.9938 33.4125Z" fill="white"/>
<path d="M133.171 34.157L122.263 68.8976H121.938L109.414 29.4404C107.669 24.0189 105.923 23.3033 100.957 22.7937H119.357C115.096 23.184 113.741 25.3092 115.096 29.8958L124.399 60.5052L132.792 33.5824C135.958 23.5744 133.442 23.184 129.051 22.7937H142.81C137.497 23.2383 136.207 24.4635 133.171 34.157Z" fill="white"/>
<path fill-rule="evenodd" clip-rule="evenodd" d="M100.686 22.7799C100.694 22.6358 100.813 22.5227 100.957 22.5227H119.357C119.502 22.5227 119.621 22.6367 119.628 22.7814C119.635 22.9261 119.526 23.0505 119.382 23.0637C117.28 23.2562 115.986 23.8698 115.352 24.9122C114.712 25.9637 114.684 27.5442 115.356 29.8181C115.356 29.8177 115.356 29.8184 115.356 29.8181L124.402 59.5839L132.533 33.5007C133.322 31.0061 133.752 29.1259 133.891 27.7033C134.029 26.2778 133.871 25.3432 133.519 24.7139C133.172 24.0952 132.615 23.7308 131.853 23.4958C131.082 23.2579 130.131 23.1619 129.027 23.0638C128.882 23.0509 128.774 22.9267 128.78 22.7818C128.786 22.6369 128.906 22.5227 129.051 22.5227H142.81C142.956 22.5227 143.075 22.6373 143.081 22.7825C143.087 22.9276 142.978 23.0518 142.833 23.0639C140.191 23.285 138.634 23.6956 137.342 25.1848C136.019 26.708 134.952 29.3794 133.43 34.2381L122.522 68.9789C122.486 69.0919 122.382 69.1687 122.263 69.1687H121.938C121.82 69.1687 121.715 69.0923 121.68 68.9797L109.156 29.5235C109.156 29.5234 109.156 29.5237 109.156 29.5235C108.288 26.8255 107.437 25.3623 106.235 24.495C105.026 23.6225 103.418 23.3189 100.929 23.0634C100.786 23.0487 100.679 22.9241 100.686 22.7799ZM124.542 60.7359C124.5 60.7619 124.45 60.7765 124.398 60.7763C124.279 60.7759 124.174 60.6979 124.14 60.5841L114.836 29.9727C114.153 27.6606 114.125 25.8855 114.889 24.6303C115.317 23.9261 115.977 23.4143 116.85 23.0648H104.359C105.202 23.2914 105.922 23.6006 106.552 24.0554C107.901 25.0286 108.796 26.6343 109.672 29.3574L109.673 29.3585L122.1 68.5124L124.542 60.7359ZM133.297 32.8664C133.937 30.7422 134.302 29.0725 134.43 27.7557C134.573 26.2811 134.422 25.2172 133.992 24.4491C133.601 23.7514 133.001 23.3321 132.272 23.0648H139.614C138.568 23.4036 137.706 23.9383 136.932 24.8294C135.644 26.3128 134.619 28.7675 133.297 32.8664Z" fill="white"/>
<path d="M156.743 67.9869H141.889C144.795 67.5965 146.735 67.0219 146.735 61.7197V29.0501C146.735 23.7588 144.795 23.1733 141.889 22.783H156.743C153.903 23.1733 151.897 23.748 151.897 29.0501V61.7305C151.908 67.0219 153.903 67.6074 156.743 67.9869Z" fill="white"/>
<path fill-rule="evenodd" clip-rule="evenodd" d="M141.618 22.765C141.628 22.6226 141.746 22.512 141.889 22.512H156.743C156.886 22.512 157.004 22.6223 157.014 22.7645C157.024 22.9067 156.922 23.0322 156.78 23.0516C155.352 23.2479 154.23 23.4836 153.446 24.2665C152.667 25.0441 152.168 26.4214 152.168 29.0502L152.168 61.7301C152.168 61.7302 152.168 61.7304 152.168 61.7306C152.173 64.3538 152.673 65.7313 153.451 66.509C154.233 67.2917 155.352 67.5276 156.779 67.7183C156.921 67.7372 157.023 67.8625 157.014 68.0049C157.004 68.1474 156.886 68.258 156.743 68.258H141.889C141.746 68.258 141.628 68.1474 141.618 68.005C141.609 67.8627 141.711 67.7373 141.853 67.7183C143.314 67.522 144.434 67.286 145.209 66.5044C145.98 65.7275 146.464 64.3508 146.464 61.7198V29.0502C146.464 26.4248 145.98 25.0479 145.209 24.2695C144.434 23.4866 143.314 23.2479 141.853 23.0517C141.711 23.0327 141.609 22.9073 141.618 22.765ZM144.31 23.0541C144.79 23.2488 145.223 23.5131 145.594 23.888C146.52 24.8228 147.007 26.3843 147.007 29.0502V61.7198C147.007 64.3909 146.52 65.9527 145.594 66.8862C145.224 67.2592 144.793 67.5222 144.315 67.7159H154.335C153.865 67.5231 153.437 67.2617 153.067 66.8924C152.135 65.9598 151.631 64.3989 151.626 61.7312L151.626 61.7306V29.0502C151.626 26.3769 152.129 24.8157 153.063 23.8829C153.436 23.5104 153.87 23.2477 154.346 23.0541H144.31Z" fill="white"/>
<path d="M189.749 32.2812V68.8325H189.164L166.177 28.085V58.4993C166.177 63.7906 168.118 67.6073 170.958 67.9868H160.755C163.661 67.5964 165.602 63.7906 165.602 58.4993V31.5114C165.602 26.22 164.052 23.8238 160.755 22.7937H169.538L189.229 57.4041V32.2812C189.229 26.9899 187.223 23.1732 184.382 22.7937H194.585C191.744 23.1732 189.749 26.9899 189.749 32.2812Z" fill="white"/>
<path fill-rule="evenodd" clip-rule="evenodd" d="M160.487 22.7529C160.508 22.6205 160.621 22.5227 160.755 22.5227H169.538C169.636 22.5227 169.725 22.575 169.774 22.6597L188.958 56.3796V32.2813C188.958 29.6665 188.462 27.4348 187.63 25.8197C186.797 24.2023 185.647 23.2363 184.346 23.0625C184.205 23.0436 184.102 22.9182 184.111 22.7758C184.121 22.6334 184.239 22.5227 184.382 22.5227H194.585C194.728 22.5227 194.846 22.6334 194.856 22.7758C194.865 22.9182 194.762 23.0436 194.621 23.0625C193.32 23.2362 192.173 24.202 191.343 25.8194C190.514 27.4345 190.02 29.6663 190.02 32.2813V68.8326C190.02 68.9823 189.899 69.1037 189.749 69.1037H189.164C189.066 69.1037 188.976 69.051 188.928 68.9658L166.448 29.1173V58.4994C166.448 61.1154 166.928 63.3477 167.744 64.9628C168.561 66.58 169.695 67.5445 170.994 67.7182C171.136 67.7371 171.238 67.8624 171.229 68.0048C171.219 68.1473 171.101 68.2579 170.958 68.2579H160.755C160.613 68.2579 160.494 68.1473 160.485 68.0049C160.475 67.8626 160.578 67.7372 160.719 67.7182C162.054 67.5389 163.203 66.5718 164.027 64.9577C164.851 63.3445 165.331 61.1155 165.331 58.4994V31.5114C165.331 28.8865 164.945 27.0198 164.18 25.6899C163.421 24.3715 162.272 23.5517 160.674 23.0525C160.547 23.0126 160.467 22.8853 160.487 22.7529ZM162.152 23.0648C163.209 23.6051 164.042 24.3643 164.65 25.4194C165.484 26.868 165.873 28.845 165.873 31.5114V58.4994C165.873 61.1746 165.383 63.4941 164.51 65.2042C163.941 66.319 163.201 67.1878 162.319 67.7158H169.417C168.551 67.1882 167.822 66.3196 167.26 65.2073C166.396 63.4963 165.906 61.1746 165.906 58.4994V28.0851C165.906 27.9619 165.989 27.8542 166.108 27.8229C166.227 27.7916 166.352 27.8446 166.413 27.9519L189.322 68.5615H189.478V57.5105C189.446 57.5857 189.381 57.6444 189.298 57.6663C189.179 57.6977 189.054 57.6452 188.993 57.5383L169.38 23.0648H162.152ZM189.489 31.6076C189.566 29.2151 190.057 27.1375 190.861 25.5718C191.432 24.4599 192.169 23.5921 193.039 23.0648H185.929C186.8 23.592 187.539 24.4597 188.112 25.5715C188.918 27.1373 189.411 29.2149 189.489 31.6076Z" fill="white"/>
<path d="M252.97 75.4144C244.773 75.4144 235.665 72.6386 230.558 63.5306C227.327 57.7839 225.071 54.1623 222.426 54.1623H218.685V61.7198C218.685 67.0111 220.691 67.5966 223.532 67.987H208.677C211.583 67.5966 213.524 67.022 213.524 61.7198V29.0502C213.524 23.7589 211.583 23.1734 208.677 22.7831H222.426C243.092 22.718 243.927 51.6468 224.941 53.978C230.493 54.6828 233.073 57.8489 236.109 62.6306C242.051 71.8687 250.379 74.5144 257.036 74.5144C259.357 74.5144 261.427 74.1891 263.108 73.7446L263.173 74.0048C260.267 74.8397 256.711 75.4144 252.97 75.4144ZM218.685 53.5877H222.426C236.955 53.5877 237.02 23.3686 222.426 23.3686H222.296C219.65 23.3686 218.685 24.0192 218.685 28.79V53.5877Z" fill="white"/>
<path fill-rule="evenodd" clip-rule="evenodd" d="M234.014 27.4919C231.381 24.8085 227.525 23.0382 222.427 23.0542L222.426 23.0542H211.098C211.578 23.2489 212.011 23.5132 212.383 23.8881C213.308 24.8229 213.795 26.3844 213.795 29.0503V61.7199C213.795 64.3911 213.309 65.9528 212.382 66.8863C212.012 67.2593 211.581 67.5223 211.103 67.716H221.139C220.661 67.5215 220.226 67.2574 219.851 66.883C218.917 65.9489 218.414 64.388 218.414 61.7199V54.1624C218.414 54.0127 218.535 53.8913 218.685 53.8913H222.426C223.881 53.8913 225.176 54.8871 226.484 56.5222C227.798 58.1661 229.18 60.5279 230.794 63.3978L230.794 63.3981C235.835 72.3888 244.828 75.1434 252.97 75.1434C254.84 75.1434 256.663 74.9987 258.38 74.7495C257.942 74.773 257.494 74.7855 257.036 74.7855C250.303 74.7855 241.881 72.1059 235.881 62.7773L235.881 62.776C234.364 60.3869 232.978 58.4301 231.292 56.9811C229.615 55.5393 227.632 54.5929 224.907 54.247C224.771 54.2298 224.67 54.1142 224.67 53.9775C224.67 53.8408 224.772 53.7257 224.908 53.709C234.233 52.564 238.695 44.8981 238.282 37.4971C238.076 33.7972 236.65 30.179 234.014 27.4919ZM226.538 53.9879C235.132 52.1771 239.225 44.673 238.824 37.4669C238.611 33.6514 237.14 29.9039 234.401 27.1122C231.658 24.317 227.659 22.4957 222.425 22.5121H208.677C208.534 22.5121 208.416 22.6227 208.406 22.7651C208.397 22.9074 208.499 23.0328 208.641 23.0518C210.102 23.248 211.222 23.4867 211.997 24.2696C212.768 25.048 213.253 26.425 213.253 29.0503V61.7199C213.253 64.3509 212.768 65.7276 211.998 66.5045C211.222 67.2861 210.102 67.5221 208.641 67.7184C208.499 67.7374 208.397 67.8628 208.406 68.0051C208.416 68.1475 208.534 68.2581 208.677 68.2581H223.532C223.674 68.2581 223.792 68.1478 223.802 68.0056C223.812 67.8634 223.71 67.7379 223.569 67.7185C222.141 67.5223 221.019 67.284 220.235 66.4997C219.456 65.7206 218.956 64.3431 218.956 61.7199V54.4335H222.426C223.616 54.4335 224.771 55.2485 226.06 56.8608C227.343 58.4644 228.704 60.7866 230.322 63.6635C235.494 72.8885 244.718 75.6855 252.97 75.6855C256.737 75.6855 260.319 75.1069 263.248 74.2654C263.388 74.2251 263.472 74.0808 263.436 73.9391L263.371 73.6789C263.353 73.6085 263.308 73.5481 263.246 73.5112C263.184 73.4743 263.109 73.464 263.039 73.4826C261.379 73.9216 259.332 74.2434 257.036 74.2434C250.455 74.2434 242.222 71.6319 236.338 62.4849C234.819 60.0925 233.397 58.0755 231.645 56.57C230.226 55.3502 228.597 54.4709 226.538 53.9879ZM219.282 24.1272C219.94 23.2534 220.972 23.0976 222.296 23.0976H222.426C226.184 23.0976 228.995 25.049 230.854 27.9439C232.708 30.8309 233.622 34.6627 233.618 38.4785C233.614 42.2943 232.691 46.1258 230.836 49.0126C228.975 51.907 226.168 53.8588 222.426 53.8588H218.685C218.535 53.8588 218.414 53.7374 218.414 53.5877V28.7901C218.414 27.5905 218.474 26.6371 218.61 25.8822C218.746 25.1282 218.96 24.5535 219.282 24.1272ZM218.956 53.3167H222.426C225.948 53.3167 228.598 51.4911 230.38 48.7194C232.166 45.9401 233.072 42.2169 233.076 38.4779C233.08 34.7389 232.182 31.0159 230.398 28.2369C228.618 25.4657 225.965 23.6397 222.426 23.6397H222.296C220.974 23.6397 220.2 23.8092 219.715 24.4534C219.464 24.7861 219.272 25.2686 219.144 25.9783C219.016 26.6873 218.956 27.6042 218.956 28.7901V53.3167Z" fill="white"/>
<path d="M267.239 68.9629C255.421 68.9629 243.667 61.0801 243.667 45.3905C243.667 29.6358 255.486 21.8181 267.239 21.8181C279.058 21.8181 290.812 29.6358 290.812 45.3905C290.812 61.0801 278.993 68.9629 267.239 68.9629ZM269.18 68.0521C277.638 68.0521 285.585 61.4705 285.65 48.6108C285.781 31.5008 274.797 22.7181 264.789 22.7181C256.461 22.7181 248.839 28.7901 248.839 41.2485C248.839 59.2694 259.367 68.0521 269.18 68.0521Z" fill="white"/>
<path fill-rule="evenodd" clip-rule="evenodd" d="M251.225 27.8989C246.862 31.7687 243.938 37.5866 243.938 45.3903C243.938 53.1617 246.846 58.9798 251.201 62.8577C255.561 66.74 261.388 68.6917 267.239 68.6917C273.058 68.6917 278.885 66.7401 283.253 62.8575C287.617 58.9794 290.541 53.1613 290.541 45.3903C290.541 37.5862 287.632 31.7683 283.278 27.8988C278.918 24.0248 273.091 22.089 267.239 22.089C261.42 22.089 255.594 24.0246 251.225 27.8989ZM250.866 27.4933C255.345 23.5201 261.305 21.5469 267.239 21.5469C273.206 21.5469 279.166 23.52 283.638 27.4935C288.114 31.4715 291.083 37.4399 291.083 45.3903C291.083 53.3091 288.098 59.2771 283.613 63.2628C279.134 67.244 273.174 69.2338 267.239 69.2338C261.272 69.2338 255.312 67.2441 250.841 63.2626C246.364 59.2767 243.396 53.3086 243.396 45.3903C243.396 37.4394 246.381 31.4711 250.866 27.4933ZM253.495 27.1237C256.498 23.9899 260.559 22.4468 264.789 22.4468C274.967 22.4468 286.053 31.3723 285.922 48.6125C285.889 55.0989 283.867 60.0286 280.76 63.3392C277.654 66.6491 273.48 68.323 269.18 68.323C259.183 68.323 248.568 59.3815 248.568 41.2484C248.568 34.9626 250.492 30.2583 253.495 27.1237ZM285.922 48.6125C285.922 48.6126 285.922 48.6127 285.922 48.6127L285.651 48.6107L285.922 48.6121C285.922 48.6122 285.922 48.6123 285.922 48.6125ZM253.887 27.4988C250.997 30.5147 249.11 35.0757 249.11 41.2484C249.11 59.157 259.552 67.7809 269.18 67.7809C273.338 67.7809 277.366 66.164 280.365 62.9682C283.363 59.7731 285.347 54.9823 285.379 48.6093L285.379 48.6086C285.509 31.6288 274.627 22.989 264.789 22.989C260.692 22.989 256.777 24.4819 253.887 27.4988Z" fill="white"/>
<path d="M312.443 68.9627C305.471 68.9627 298.564 64.116 298.618 54.4984V29.0501C298.618 23.7588 296.678 23.1733 293.772 22.783H308.692C305.786 23.1733 303.845 23.748 303.845 29.0501V54.4875C303.845 63.1401 309.136 67.2713 314.503 67.2713C320.055 67.2713 325.671 62.8799 325.671 54.4875V32.2813C325.671 26.99 323.731 23.1733 320.825 22.7938H331.028C328.187 23.1841 326.246 26.99 326.246 32.2813V54.4984C326.398 64.116 319.415 68.9627 312.443 68.9627Z" fill="white"/>
<path fill-rule="evenodd" clip-rule="evenodd" d="M293.501 22.765C293.511 22.6226 293.629 22.512 293.772 22.512H308.692C308.834 22.512 308.953 22.6226 308.962 22.765C308.972 22.9073 308.869 23.0327 308.728 23.0517C307.266 23.248 306.146 23.484 305.371 24.2656C304.6 25.0425 304.116 26.4192 304.116 29.0502V54.4876C304.116 58.7573 305.42 61.8826 307.359 63.9382C309.298 65.995 311.89 67.0003 314.503 67.0003C319.899 67.0003 325.4 62.7362 325.4 54.4876V32.2814C325.4 29.6653 324.92 27.4335 324.096 25.8189C323.272 24.2033 322.123 23.2369 320.79 23.0627C320.648 23.0442 320.545 22.9189 320.554 22.7763C320.563 22.6337 320.682 22.5228 320.825 22.5228H331.028C331.17 22.5228 331.289 22.6332 331.298 22.7754C331.308 22.9176 331.206 23.043 331.065 23.0624C329.764 23.2411 328.631 24.2064 327.814 25.8221C326.998 27.4358 326.517 29.6654 326.517 32.2814V54.4963C326.594 59.3755 324.859 63.0664 322.201 65.5358C319.547 68.0014 315.99 69.2339 312.443 69.2339C308.896 69.2339 305.358 68.0012 302.711 65.5356C300.06 63.0663 298.32 59.3759 298.347 54.4976V29.0502C298.347 26.4248 297.863 25.0479 297.092 24.2695C296.317 23.4866 295.197 23.2479 293.736 23.0517C293.594 23.0327 293.492 22.9073 293.501 22.765ZM296.193 23.0541C296.673 23.2488 297.106 23.5131 297.477 23.888C298.403 24.8228 298.89 26.3843 298.89 29.0502V54.4984L298.89 54.5C298.863 59.2389 300.549 62.7805 303.081 65.1389C305.617 67.5011 309.018 68.6917 312.443 68.6917C315.869 68.6917 319.289 67.5009 321.832 65.1386C324.37 62.7806 326.05 59.2401 325.975 54.5027L325.975 54.4984H325.975V32.2814C325.975 29.6061 326.465 27.287 327.33 25.5774C327.893 24.4631 328.625 23.5935 329.493 23.0649H322.395C323.274 23.5921 324.012 24.4598 324.579 25.5725C325.452 27.284 325.943 29.6062 325.943 32.2814V54.4876C325.943 63.0238 320.21 67.5424 314.503 67.5424C311.75 67.5424 309.012 66.4821 306.964 64.3102C304.915 62.137 303.574 58.8705 303.574 54.4876V29.0502C303.574 26.3791 304.06 24.8173 304.986 23.8838C305.356 23.5108 305.788 23.2478 306.265 23.0541H296.193Z" fill="white"/>
<path d="M357.062 68.8976C344.853 68.8976 333.359 61.0149 333.359 45.7806C333.359 30.2862 345.308 21.948 357.636 21.948C363.318 21.948 369.065 23.6937 373.846 27.3044L371.84 36.6076C372.675 29.6356 367.319 22.7287 358.862 22.7287C348.138 22.4034 339.106 29.8958 339.16 43.7855C339.16 60.6354 349.754 67.7374 358.731 67.7374C365.248 67.7374 370.941 63.9316 370.941 57.3391V52.6225C370.941 47.3312 369 46.6806 366.094 46.3553H380.949C378.108 46.6806 376.102 47.3203 376.102 52.6225V68.3772C375.397 66.2411 374.356 65.2761 372.74 65.2761C371.71 65.2761 370.55 65.6665 369.065 66.2411C365.27 67.9868 361.139 68.8976 357.062 68.8976Z" fill="white"/>
<path fill-rule="evenodd" clip-rule="evenodd" d="M341.054 28.2566C336.586 32.2253 333.63 38.109 333.63 45.7807C333.63 53.3238 336.473 59.0276 340.811 62.8486C345.154 66.6739 351.013 68.6266 357.062 68.6266C361.099 68.6266 365.191 67.7246 368.951 65.9949C368.956 65.9926 368.962 65.9904 368.967 65.9884C370.446 65.4162 371.652 65.0051 372.74 65.0051C373.609 65.0051 374.341 65.267 374.946 65.8266C375.284 66.138 375.576 66.536 375.831 67.0195V52.6226C375.831 49.9493 376.334 48.3725 377.267 47.4317C377.622 47.0737 378.032 46.8166 378.481 46.6264H368.584C369.037 46.8176 369.447 47.0764 369.8 47.4368C370.725 48.3796 371.211 49.9567 371.211 52.6226V57.3392C371.211 60.722 369.748 63.3984 367.448 65.2229C365.154 67.0429 362.04 68.0086 358.731 68.0086C354.173 68.0086 349.209 66.206 345.384 62.2691C341.557 58.3293 338.889 52.27 338.889 43.7861C338.889 43.786 338.889 43.7858 338.889 43.7856H339.16L338.889 43.7867C338.889 43.7865 338.889 43.7863 338.889 43.7861C338.862 36.7809 341.127 31.3618 344.778 27.7343C348.427 24.1085 353.439 22.2941 358.866 22.4577C358.864 22.4577 358.863 22.4577 358.861 22.4577V22.7288L358.87 22.4578C358.868 22.4578 358.867 22.4577 358.866 22.4577C366.394 22.4596 371.526 27.838 372.136 33.9508L371.575 36.5505L371.84 36.6076L372.11 36.6399C372.218 35.7375 372.224 34.8365 372.136 33.9508L373.545 27.4171C373.591 27.4515 373.637 27.486 373.683 27.5208L373.846 27.3044L373.581 27.2473L373.545 27.4171C368.841 23.9146 363.208 22.2191 357.636 22.2191C351.531 22.2191 345.528 24.284 341.054 28.2566ZM340.694 27.8513C345.278 23.7812 351.413 21.677 357.636 21.677C363.373 21.677 369.178 23.4395 374.01 27.0881C374.094 27.1517 374.134 27.2584 374.111 27.3616L372.105 36.6648C372.075 36.8063 371.938 36.8989 371.796 36.875C371.653 36.8511 371.554 36.7192 371.571 36.5754C372.387 29.7632 367.155 22.9998 358.861 22.9998H358.853L358.853 22.9997C353.558 22.8391 348.693 24.6082 345.16 28.1189C341.628 31.6285 339.404 36.9003 339.431 43.7846L339.431 43.7856C339.431 52.1513 342.059 58.0678 345.773 61.8914C349.49 65.718 354.312 67.4664 358.731 67.4664C361.94 67.4664 364.929 66.5292 367.111 64.7982C369.287 63.0717 370.669 60.5489 370.669 57.3392V52.6226C370.669 49.9971 370.185 48.6032 369.413 47.8165C368.639 47.0275 367.52 46.7878 366.063 46.6248C365.921 46.6088 365.815 46.4839 365.823 46.3403C365.831 46.1967 365.95 46.0843 366.094 46.0843H380.948C381.092 46.0843 381.211 46.1965 381.219 46.3399C381.227 46.4834 381.122 46.6083 380.979 46.6247C379.556 46.7877 378.435 47.0245 377.652 47.8136C376.872 48.5995 376.373 49.9936 376.373 52.6226V68.3772C376.373 68.5103 376.276 68.6238 376.145 68.6449C376.013 68.666 375.886 68.5886 375.844 68.4622C375.499 67.4161 375.082 66.6893 374.579 66.2248C374.084 65.7678 373.488 65.5472 372.74 65.5472C371.77 65.5472 370.658 65.9156 369.17 66.491C365.342 68.2504 361.176 69.1688 357.062 69.1688C350.901 69.1688 344.909 67.1801 340.453 63.2555C335.992 59.3265 333.088 53.4718 333.088 45.7807C333.088 37.958 336.107 31.9254 340.694 27.8513Z" fill="white"/>
<path d="M410.864 67.9218V67.9869H382.64C385.546 67.5965 387.487 67.0219 387.487 61.7197V29.0501C387.487 23.7588 385.546 23.1733 382.64 22.783H410.083L411.959 33.7559C411.254 31.6199 410.083 23.3576 400.14 23.3576H392.648V43.894H401.105C405.236 43.894 405.627 40.2075 406.017 37.822V50.5407C405.627 48.2203 405.247 44.4687 401.105 44.4687H392.648V61.9691C392.648 66.7508 393.038 67.3905 398.59 67.3905H400.91C410.853 67.3905 412.013 59.1283 412.729 56.9922L410.864 67.9218Z" fill="white"/>
<path fill-rule="evenodd" clip-rule="evenodd" d="M382.369 22.765C382.379 22.6226 382.497 22.512 382.64 22.512H410.083C410.215 22.512 410.328 22.6072 410.35 22.7374L412.226 33.7103C412.25 33.8502 412.162 33.9848 412.024 34.0191C411.887 34.0533 411.746 33.9757 411.702 33.841C411.627 33.6163 411.55 33.3338 411.46 33.0073C411.106 31.7169 410.563 29.7378 409.291 27.9107C407.717 25.6484 405.02 23.6288 400.14 23.6288H392.919V43.623H401.105C402.096 43.623 402.845 43.4024 403.419 43.0498C403.994 42.6969 404.412 42.201 404.726 41.6232C405.304 40.5585 405.513 39.2512 405.696 38.1109C405.714 37.9983 405.732 37.8873 405.75 37.7783C405.772 37.639 405.898 37.5405 406.039 37.5519C406.18 37.5634 406.288 37.6809 406.288 37.8221V50.5408C406.288 50.6817 406.18 50.7992 406.04 50.8109C405.899 50.8226 405.773 50.7248 405.75 50.5858C405.729 50.4621 405.708 50.3353 405.687 50.2061C405.507 49.1014 405.298 47.8185 404.729 46.7632C404.416 46.181 403.998 45.6791 403.422 45.3214C402.847 44.9642 402.098 44.7398 401.105 44.7398H392.919V61.9692C392.919 63.1665 392.944 64.0815 393.063 64.7885C393.181 65.4918 393.388 65.9549 393.724 66.2772C394.063 66.6017 394.57 66.8178 395.363 66.9485C396.157 67.0792 397.203 67.1195 398.59 67.1195H400.91C405.79 67.1195 408.484 65.0999 410.057 62.8377C411.321 61.0212 411.864 59.0557 412.221 57.7643C412.314 57.4276 412.395 57.1367 412.472 56.9062C412.517 56.7719 412.658 56.6949 412.795 56.7294C412.932 56.7639 413.02 56.8983 412.996 57.0379L411.135 67.9449V67.987C411.135 68.1367 411.014 68.258 410.864 68.258H382.64C382.497 68.258 382.379 68.1474 382.369 68.005C382.36 67.8627 382.462 67.7373 382.604 67.7183C384.065 67.522 385.185 67.286 385.961 66.5044C386.731 65.7275 387.216 64.3508 387.216 61.7198V29.0502C387.216 26.4248 386.731 25.0479 385.96 24.2695C385.185 23.4866 384.065 23.2479 382.604 23.0517C382.462 23.0327 382.36 22.9073 382.369 22.765ZM385.061 23.0541C385.541 23.2488 385.974 23.5131 386.346 23.888C387.271 24.8228 387.758 26.3843 387.758 29.0502V61.7198C387.758 64.3909 387.272 65.9527 386.345 66.8862C385.975 67.2592 385.544 67.5222 385.066 67.7159H410.624L411.82 60.7082C411.488 61.5049 411.062 62.3431 410.502 63.1472C408.831 65.5501 405.973 67.6617 400.91 67.6617H398.59C397.201 67.6617 396.116 67.622 395.275 67.4834C394.434 67.3447 393.802 67.102 393.349 66.6688C392.895 66.2335 392.656 65.6401 392.528 64.8786C392.401 64.1208 392.377 63.1627 392.377 61.9692V44.4688C392.377 44.3191 392.498 44.1977 392.648 44.1977H401.105C402.183 44.1977 403.035 44.4423 403.708 44.861C404.381 45.2793 404.859 45.8603 405.207 46.5061C405.434 46.9285 405.608 47.3833 405.746 47.8441V40.5397C405.607 41.0034 405.432 41.4595 405.202 41.882C404.853 42.5241 404.375 43.099 403.702 43.5118C403.03 43.925 402.18 44.1652 401.105 44.1652H392.648C392.498 44.1652 392.377 44.0438 392.377 43.8941V23.3577C392.377 23.208 392.498 23.0866 392.648 23.0866H400.14C405.203 23.0866 408.064 25.1981 409.736 27.601C410.291 28.3971 410.714 29.2264 411.045 30.0157L409.854 23.0541H385.061Z" fill="white"/>
</svg>
