<svg width="424" height="90" viewBox="0 0 424 90" fill="none" xmlns="http://www.w3.org/2000/svg">
<path d="M34.0585 85.4095L34.051 86.8806C34.051 87.1344 33.8494 87.3361 33.5955 87.3361H31.1238C30.8699 87.3361 30.6683 87.1344 30.6683 86.8806L30.6758 85.4095C30.6907 75.7542 30.7056 65.2627 27.308 57.9596C24.7243 56.2048 13.9415 49.7754 1.26198 54.7785C1.00809 54.8681 0.716863 54.7337 0.634722 54.4649C0.410703 53.6659 0.209085 52.8594 0.0298693 52.038C-0.022402 51.814 0.104543 51.5751 0.321095 51.4929C9.11013 48.1476 17.018 49.6186 22.4617 51.6945C21.2445 50.7761 19.8481 50.0293 18.2427 49.4991C6.68325 45.7132 1.9415 39.2838 0.0298693 34.1314C0 34.0492 -0.00746732 33.9522 0.00746732 33.8626C0.350964 32.2422 0.791536 30.6591 1.31425 29.1208C1.47853 28.6504 2.16552 28.7325 2.21779 29.2179C2.64343 33.0188 4.9359 40.1501 15.5619 44.8545C14.6808 38.679 15.5992 33.3697 16.4206 28.6056C17.5781 21.9074 18.5264 16.4861 14.636 10.4002C14.509 10.1986 14.5463 9.93726 14.7256 9.78045C15.3677 9.25774 16.0174 8.74996 16.6895 8.26458C16.906 8.10777 17.2196 8.16751 17.3615 8.39153C22.0958 15.6647 20.9533 22.2434 19.7511 29.1806C18.8401 34.4151 17.9066 39.8215 19.2358 46.2733C19.2508 46.2807 19.2732 46.2882 19.2956 46.2882C34.1033 51.1643 34.0809 69.3547 34.0585 85.4095Z" fill="#482817"/>
<path d="M83.5891 52.1349C83.4099 52.9413 83.2082 53.7478 82.9842 54.5468C82.9096 54.8082 82.6183 54.9501 82.3644 54.853C68.8411 49.7901 57.0129 56.1971 54.1529 57.9594C52.9955 63.3433 53.0029 69.0633 53.0104 73.0807V86.8803C53.0104 87.1342 52.8088 87.3358 52.5549 87.3358H50.0832C49.8293 87.3358 49.6277 87.1342 49.6277 86.8803V73.0882C49.6128 66.39 49.5978 55.3458 54.5711 47.7068C51.7634 44.4585 49.1274 39.3434 49.2693 33.6159C49.3813 28.7846 51.5095 24.3564 55.3999 20.8169C61.4037 15.3583 62.3371 10.4672 62.0011 5.96443C61.9787 5.59106 62.3744 5.34464 62.6955 5.52386C63.5543 6.00923 64.3981 6.51701 65.2195 7.06212C65.3539 7.15173 65.436 7.29361 65.436 7.45789C65.436 12.11 63.9426 17.6284 57.6775 23.3185C54.4292 26.2606 52.7416 29.7553 52.6445 33.6906C52.54 38.1859 54.5039 42.2407 56.6993 44.9887C57.9687 43.6595 59.4547 42.4946 61.217 41.5761C65.4883 39.3434 69.5431 38.4174 73.1124 37.6109C78.4516 36.3863 81.3115 35.5948 82.4391 32.466C82.5959 32.0254 83.2232 32.0478 83.3352 32.4958C83.6264 33.6682 83.8728 34.8555 84.067 36.0577C84.0894 36.1996 84.0521 36.3415 83.955 36.446C81.5953 39.1417 77.8019 40.0005 73.8666 40.8966C70.4914 41.6657 66.6681 42.5394 62.7777 44.563C59.2083 46.4298 56.9382 49.6333 55.5045 53.3521C60.9482 50.6937 71.4024 47.2139 83.2904 51.5823C83.5144 51.6719 83.6414 51.9109 83.5891 52.1349Z" fill="#482817"/>
<path d="M52.8164 1.51387C53.1599 1.60348 53.2793 2.02911 53.0255 2.283C51.8307 3.49271 49.8369 6.71859 49.1873 14.9476C48.5525 23.0646 44.7591 29.3894 41.705 34.4746C39.5021 38.1411 37.583 41.3371 37.3963 44.1822C40.4729 49.2301 43.5196 55.7341 43.5196 66.2556V86.8803C43.5196 87.1342 43.3179 87.3358 43.064 87.3358H40.5924C40.3385 87.3358 40.1369 87.1342 40.1369 86.8803V66.2481C40.1369 54.5393 36.1717 48.4236 32.6695 43.0247C28.57 36.6999 24.687 30.726 29.3764 18.3153C32.9085 8.98119 33.8195 3.7018 34.0286 1.1405C34.0435 0.931418 34.2003 0.75967 34.4094 0.722333C35.2383 0.572987 36.0821 0.45351 36.9259 0.356435C37.2097 0.326565 37.4561 0.550585 37.4412 0.841811C37.2918 3.7018 36.3659 9.38443 32.5351 19.5176C28.667 29.7553 31.1238 34.385 34.8649 40.2095C35.7461 37.82 37.2097 35.3856 38.8002 32.7347C41.817 27.7092 45.237 22.0117 45.812 14.6862C46.3795 7.37572 48.0074 3.32096 49.6054 1.0733C49.71 0.923951 49.8966 0.856745 50.0684 0.894082C51.0093 1.06583 51.9203 1.27492 52.8164 1.51387Z" fill="#482817"/>
<path d="M58.7379 40.12C62.4044 39.321 64.7267 35.6993 63.9277 32.0329L63.7709 31.3086C63.7186 31.0771 63.4872 30.9277 63.2557 30.9725L62.5313 31.1293C58.8649 31.9284 56.5425 35.55 57.3415 39.2165L57.4984 39.9483C57.5506 40.1797 57.7821 40.3291 58.0136 40.2843L58.7379 40.12Z" fill="#482817"/>
<path d="M57.1698 58.6764L56.5276 59.0423C56.3185 59.1618 56.2513 59.4306 56.3708 59.6397L56.7367 60.2819C58.611 63.5302 62.7703 64.6428 66.0186 62.7685L66.6608 62.4026C66.8699 62.2832 66.9371 62.0143 66.8176 61.8052L66.4517 61.1631C64.5774 57.9148 60.4256 56.8021 57.1698 58.6764Z" fill="#482817"/>
<path d="M45.4461 45.7506L44.7517 45.4967C44.5276 45.4145 44.2737 45.534 44.1916 45.758L43.9377 46.4525C42.6608 49.9845 44.4828 53.875 48.0149 55.1519L48.7093 55.4058C48.9334 55.488 49.1872 55.3685 49.2694 55.1445L49.5233 54.45C50.8002 50.9254 48.9707 47.0275 45.4461 45.7506Z" fill="#482817"/>
<path d="M48.0671 38.1413L48.1716 37.4095C48.209 37.1706 48.0372 36.954 47.7983 36.9167L47.0665 36.8121C43.3477 36.282 39.9128 38.8657 39.3826 42.5844L39.2781 43.3162C39.2407 43.5551 39.4125 43.7717 39.6514 43.809L40.3832 43.9136C44.1019 44.4363 47.5369 41.8526 48.0671 38.1413Z" fill="#482817"/>
<path d="M42.3023 19.1371L42.4069 18.4053C42.4442 18.1664 42.2799 17.9424 42.041 17.9125L41.3092 17.808C37.5979 17.2554 34.1405 19.8241 33.5954 23.5354L33.4909 24.2672C33.4536 24.5061 33.6178 24.7302 33.8568 24.76L34.5886 24.8646C38.2998 25.4172 41.7497 22.8484 42.3023 19.1371Z" fill="#482817"/>
<path d="M25.5232 34.9079L24.8287 35.1618C21.3116 36.4611 19.512 40.3665 20.8113 43.8911L21.0652 44.5856C21.1474 44.8096 21.4012 44.9291 21.6253 44.8469L22.3197 44.593C25.8368 43.2937 27.6365 39.3883 26.3371 35.8637L26.0833 35.1693C26.0011 34.9378 25.7547 34.8258 25.5232 34.9079Z" fill="#482817"/>
<path d="M15.5918 27.0223C16.122 23.3036 13.5383 19.8686 9.81955 19.3384L9.08775 19.2339C8.8488 19.1965 8.63225 19.3683 8.59491 19.6072L8.49037 20.339C7.96019 24.0578 10.5439 27.4927 14.2551 28.0229L14.9869 28.1274C15.2259 28.1648 15.4424 27.993 15.4798 27.7541L15.5918 27.0223Z" fill="#482817"/>
<path d="M10.7006 39.0447C13.3515 36.3938 13.3515 32.0851 10.7006 29.4342L10.1779 28.9115C10.0061 28.7398 9.72986 28.7398 9.56558 28.9115L9.04286 29.4342C6.39196 32.0851 6.39196 36.3938 9.04286 39.0447L9.56558 39.5674C9.73732 39.7391 10.0136 39.7391 10.1779 39.5674L10.7006 39.0447Z" fill="#482817"/>
<path d="M24.2015 7.21162L23.5071 6.9652C23.2831 6.88305 23.0292 7.00253 22.947 7.22655L22.7006 7.92101C21.4386 11.4531 23.2756 15.3435 26.8151 16.6055L27.5096 16.8519C27.7336 16.9341 27.9875 16.8146 28.0696 16.5906L28.316 15.8961C29.578 12.3641 27.7411 8.47359 24.2015 7.21162Z" fill="#482817"/>
<path d="M43.9228 10.1312L44.6396 10.3105C44.8711 10.3702 45.1101 10.2283 45.1698 9.99683L45.349 9.27996C46.2675 5.64338 44.0646 1.94705 40.428 1.02857L39.7112 0.849357C39.4797 0.789619 39.2407 0.931498 39.181 1.16298L39.0018 1.87985C38.0758 5.51643 40.2862 9.21276 43.9228 10.1312Z" fill="#482817"/>
<path d="M81.7074 43.346C78.6607 41.1506 74.4118 41.845 72.2239 44.8917L71.7908 45.4891C71.6489 45.6832 71.6937 45.9595 71.8879 46.094L72.4853 46.5271C75.5319 48.7224 79.7808 48.028 81.9688 44.9813L82.4019 44.3839C82.5438 44.1898 82.499 43.9135 82.3048 43.7791L81.7074 43.346Z" fill="#482817"/>
<path d="M15.4351 61.1705L15.0692 61.8127C14.9497 62.0218 15.0169 62.2906 15.226 62.4101L15.8682 62.776C19.1165 64.6503 23.2758 63.5376 25.15 60.2894L25.5159 59.6472C25.6354 59.4381 25.5682 59.1693 25.3591 59.0498L24.7169 58.6764C21.4687 56.8021 17.3168 57.9147 15.4351 61.1705Z" fill="#482817"/>
<path d="M71.5967 54.8829L70.8724 55.0174C70.6334 55.0622 70.4766 55.2862 70.5214 55.5251L70.6558 56.2495C71.3204 59.9458 74.8525 62.3951 78.5488 61.7305L79.2731 61.5961C79.5121 61.5513 79.6689 61.3272 79.6241 61.0883L79.4897 60.364C78.8251 56.6751 75.293 54.2183 71.5967 54.8829Z" fill="#482817"/>
<path d="M4.58492 60.364L4.45051 61.0883C4.40571 61.3272 4.56252 61.5513 4.80147 61.5961L5.52581 61.7305C9.22213 62.3951 12.7542 59.9383 13.4188 56.2495L13.5532 55.5251C13.598 55.2862 13.4412 55.0622 13.2022 55.0174L12.4779 54.8829C8.78156 54.2183 5.24951 56.6751 4.58492 60.364Z" fill="#482817"/>
<path d="M58.2749 25.0961L57.7373 25.5964C57.5581 25.7607 57.5506 26.037 57.7149 26.2087L58.2152 26.7464C60.769 29.4943 65.0702 29.6512 67.8182 27.0973L68.3558 26.597C68.5351 26.4327 68.5425 26.1564 68.3782 25.9847L67.8779 25.447C65.3241 22.7065 61.0229 22.5423 58.2749 25.0961Z" fill="#482817"/>
<path d="M73.3738 16.15L73.6202 15.4556C73.7024 15.2315 73.5829 14.9777 73.3589 14.8955L72.6644 14.6491C69.1324 13.3871 65.2419 15.2241 63.9799 18.7636L63.7335 19.4581C63.6514 19.6821 63.7708 19.936 63.9949 20.0181L64.6893 20.2645C68.2214 21.519 72.1118 19.6821 73.3738 16.15Z" fill="#482817"/>
<path d="M59.761 7.96583V7.22656C59.761 6.98761 59.5668 6.79346 59.3279 6.79346H58.5886C54.8325 6.79346 51.7933 9.83266 51.7933 13.5887V14.328C51.7933 14.5669 51.9875 14.7611 52.2264 14.7611H52.9657C56.7218 14.7611 59.761 11.7144 59.761 7.96583Z" fill="#482817"/>
<path d="M71.4996 34.0043L71.6041 34.7361C71.6414 34.9751 71.858 35.1393 72.097 35.102L72.8287 34.9975C76.54 34.4598 79.1237 31.0174 78.5861 27.3061L78.4815 26.5743C78.4442 26.3354 78.2276 26.1711 77.9887 26.2084L77.2569 26.313C73.5456 26.8431 70.9694 30.293 71.4996 34.0043Z" fill="#482817"/>
<path d="M134.12 34.7541L123.134 69.7422H122.807L110.194 30.0039C108.436 24.5438 106.678 23.8231 101.676 23.3098H120.208C115.916 23.7029 114.551 25.8433 115.916 30.4625L125.286 61.2901L133.738 34.1754C136.927 24.0961 134.393 23.7029 129.97 23.3098H143.828C138.477 23.7575 137.178 24.9915 134.12 34.7541Z" fill="#482817"/>
<path fill-rule="evenodd" clip-rule="evenodd" d="M101.404 23.2959C101.411 23.1508 101.531 23.0369 101.676 23.0369H120.208C120.354 23.0369 120.474 23.1516 120.481 23.2974C120.487 23.4432 120.378 23.5684 120.233 23.5817C118.116 23.7756 116.813 24.3936 116.174 25.4434C115.529 26.5024 115.501 28.0941 116.178 30.3842C116.178 30.3839 116.178 30.3845 116.178 30.3842L125.289 60.3622L133.478 34.0931C134.272 31.5807 134.706 29.6872 134.845 28.2544C134.984 26.8187 134.825 25.8774 134.47 25.2437C134.121 24.6206 133.56 24.2535 132.793 24.0169C132.016 23.7773 131.058 23.6806 129.946 23.5818C129.801 23.5689 129.691 23.4437 129.698 23.2978C129.704 23.1518 129.824 23.0369 129.97 23.0369H143.828C143.974 23.0369 144.095 23.1523 144.101 23.2985C144.107 23.4447 143.997 23.5697 143.851 23.5819C141.19 23.8046 139.622 24.2181 138.32 25.7179C136.988 27.252 135.913 29.9424 134.381 34.8358L123.395 69.8241C123.359 69.9379 123.254 70.0153 123.134 70.0153H122.807C122.688 70.0153 122.583 69.9383 122.547 69.8249L109.934 30.0876C109.934 30.0874 109.934 30.0878 109.934 30.0876C109.059 27.3703 108.202 25.8967 106.992 25.0232C105.774 24.1445 104.155 23.8387 101.648 23.5814C101.504 23.5666 101.396 23.4411 101.404 23.2959ZM125.429 61.5223C125.387 61.5485 125.337 61.5633 125.285 61.5631C125.165 61.5627 125.059 61.4841 125.024 61.3695L115.654 30.5399C114.966 28.2113 114.938 26.4236 115.708 25.1595C116.139 24.4503 116.804 23.9348 117.683 23.5829H105.102C105.951 23.811 106.676 24.1225 107.311 24.5804C108.67 25.5606 109.571 27.1778 110.454 29.9202L110.454 29.9213L122.97 69.3543L125.429 61.5223ZM134.246 33.4542C134.891 31.3149 135.259 29.6334 135.388 28.3071C135.532 26.822 135.38 25.7506 134.947 24.977C134.553 24.2743 133.949 23.852 133.214 23.5829H140.609C139.555 23.924 138.687 24.4625 137.908 25.36C136.611 26.8539 135.578 29.3261 134.246 33.4542Z" fill="#482817"/>
<path d="M157.86 68.8251H142.9C145.826 68.432 147.781 67.8532 147.781 62.5133V29.6109C147.781 24.2819 145.826 23.6922 142.9 23.2991H157.86C154.999 23.6922 152.979 24.271 152.979 29.6109V62.5242C152.99 67.8532 154.999 68.4429 157.86 68.8251Z" fill="#482817"/>
<path fill-rule="evenodd" clip-rule="evenodd" d="M142.627 23.2809C142.637 23.1375 142.756 23.0261 142.9 23.0261H157.86C158.004 23.0261 158.123 23.1373 158.133 23.2805C158.143 23.4237 158.04 23.55 157.898 23.5696C156.459 23.7673 155.33 24.0047 154.54 24.7932C153.755 25.5763 153.252 26.9634 153.252 29.611L153.252 62.5237C153.252 62.5239 153.252 62.524 153.252 62.5242C153.258 65.1662 153.761 66.5534 154.544 67.3367C155.332 68.1249 156.459 68.3625 157.897 68.5546C158.039 68.5736 158.142 68.6999 158.133 68.8433C158.123 68.9867 158.004 69.0982 157.86 69.0982H142.9C142.756 69.0982 142.637 68.9868 142.627 68.8434C142.618 68.7 142.721 68.5737 142.863 68.5546C144.335 68.3569 145.463 68.1192 146.244 67.332C147.02 66.5496 147.508 65.1631 147.508 62.5133V29.611C147.508 26.9669 147.021 25.5802 146.244 24.7962C145.463 24.0077 144.335 23.7673 142.863 23.5697C142.721 23.5506 142.618 23.4243 142.627 23.2809ZM145.338 23.5721C145.821 23.7682 146.258 24.0344 146.632 24.412C147.564 25.3534 148.054 26.926 148.054 29.611V62.5133C148.054 65.2035 147.565 66.7764 146.632 67.7166C146.259 68.0922 145.824 68.3571 145.343 68.5522H155.435C154.961 68.358 154.53 68.0948 154.158 67.7228C153.219 66.7835 152.712 65.2115 152.706 62.5248L152.706 62.5243V29.611C152.706 26.9186 153.213 25.3463 154.154 24.4068C154.53 24.0317 154.966 23.7671 155.446 23.5721H145.338Z" fill="#482817"/>
<path d="M191.101 32.8649V69.6767H190.512L167.361 28.6388V59.2698C167.361 64.5988 169.316 68.4427 172.177 68.8249H161.901C164.827 68.4318 166.782 64.5988 166.782 59.2698V32.0896C166.782 26.7606 165.221 24.3472 161.901 23.3098H170.746L190.577 58.1669V32.8649C190.577 27.5359 188.557 23.692 185.696 23.3098H195.972C193.111 23.692 191.101 27.5359 191.101 32.8649Z" fill="#482817"/>
<path fill-rule="evenodd" clip-rule="evenodd" d="M161.631 23.2687C161.651 23.1354 161.766 23.0369 161.901 23.0369H170.746C170.844 23.0369 170.935 23.0896 170.983 23.1749L190.304 57.135V32.865C190.304 30.2316 189.804 27.9839 188.967 26.3574C188.128 24.7284 186.97 23.7555 185.66 23.5805C185.517 23.5614 185.414 23.4352 185.423 23.2918C185.433 23.1483 185.552 23.0369 185.696 23.0369H195.972C196.115 23.0369 196.235 23.1483 196.244 23.2918C196.254 23.4352 196.15 23.5614 196.008 23.5805C194.698 23.7555 193.543 24.7281 192.706 26.3571C191.871 27.9836 191.374 30.2314 191.374 32.865V69.6768C191.374 69.8275 191.252 69.9498 191.101 69.9498H190.512C190.413 69.9498 190.322 69.8967 190.274 69.8109L167.634 29.6785V59.2699C167.634 61.9046 168.118 64.1528 168.94 65.7794C169.763 67.4081 170.904 68.3795 172.213 68.5544C172.355 68.5734 172.459 68.6997 172.449 68.8431C172.44 68.9865 172.32 69.098 172.177 69.098H161.901C161.757 69.098 161.638 68.9866 161.628 68.8432C161.619 68.6998 161.722 68.5736 161.864 68.5544C163.209 68.3739 164.366 67.3998 165.196 65.7743C166.025 64.1496 166.509 61.9046 166.509 59.2699V32.0897C166.509 29.446 166.121 27.566 165.35 26.2266C164.586 24.8989 163.428 24.0732 161.819 23.5704C161.691 23.5302 161.611 23.402 161.631 23.2687ZM163.307 23.5829C164.372 24.127 165.211 24.8916 165.823 25.9542C166.663 27.4131 167.055 29.4043 167.055 32.0897V59.2699C167.055 61.9642 166.562 64.3002 165.682 66.0226C165.109 67.1452 164.364 68.0202 163.475 68.552H170.624C169.753 68.0206 169.018 67.1459 168.452 66.0256C167.582 64.3025 167.088 61.9642 167.088 59.2699V28.6389C167.088 28.5148 167.172 28.4064 167.292 28.3748C167.412 28.3433 167.538 28.3967 167.599 28.5048L190.671 69.4038H190.828V58.274C190.796 58.3497 190.73 58.4088 190.647 58.4309C190.527 58.4626 190.401 58.4096 190.34 58.3019L170.587 23.5829H163.307ZM190.839 32.1865C190.917 29.777 191.411 27.6846 192.221 26.1077C192.796 24.9879 193.539 24.1139 194.415 23.5829H187.254C188.131 24.1138 188.875 24.9877 189.452 26.1074C190.264 27.6843 190.761 29.7768 190.839 32.1865Z" fill="#482817"/>
<path d="M254.773 76.3055C246.517 76.3055 237.344 73.51 232.201 64.3371C228.947 58.5494 226.675 54.9021 224.011 54.9021H220.243V62.5134C220.243 67.8424 222.263 68.4321 225.125 68.8252H210.164C213.091 68.4321 215.045 67.8533 215.045 62.5134V29.611C215.045 24.282 213.091 23.6923 210.164 23.2992H224.011C244.824 23.2337 245.665 52.3686 226.544 54.7164C232.135 55.4262 234.734 58.6149 237.792 63.4307C243.776 72.7346 252.163 75.3991 258.868 75.3991C261.205 75.3991 263.29 75.0715 264.983 74.6238L265.049 74.8859C262.122 75.7268 258.54 76.3055 254.773 76.3055ZM220.243 54.3233H224.011C238.644 54.3233 238.709 23.8889 224.011 23.8889H223.88C221.215 23.8889 220.243 24.5441 220.243 29.3489V54.3233Z" fill="#482817"/>
<path fill-rule="evenodd" clip-rule="evenodd" d="M235.681 28.0416C233.03 25.339 229.147 23.5561 224.011 23.5722L224.011 23.5722H212.602C213.085 23.7683 213.522 24.0345 213.896 24.4121C214.828 25.3535 215.318 26.9261 215.318 29.6111V62.5134C215.318 65.2036 214.829 66.7765 213.896 67.7167C213.523 68.0923 213.088 68.3572 212.607 68.5523H222.715C222.233 68.3564 221.795 68.0904 221.418 67.7134C220.477 66.7726 219.97 65.2006 219.97 62.5134V54.9021C219.97 54.7513 220.092 54.6291 220.243 54.6291H224.011C225.476 54.6291 226.781 55.632 228.098 57.2787C229.422 58.9343 230.814 61.313 232.439 64.2033L232.439 64.2036C237.516 73.2584 246.573 76.0326 254.773 76.0326C256.656 76.0326 258.492 75.8869 260.221 75.6359C259.781 75.6596 259.329 75.6722 258.868 75.6722C252.086 75.6722 243.605 72.9735 237.562 63.5784L237.561 63.5771C236.034 61.171 234.638 59.2003 232.94 57.7409C231.251 56.2888 229.254 55.3357 226.51 54.9873C226.373 54.97 226.271 54.8536 226.271 54.7159C226.271 54.5782 226.374 54.4623 226.511 54.4455C235.902 53.2924 240.396 45.5718 239.98 38.118C239.773 34.3918 238.337 30.7478 235.681 28.0416ZM228.152 54.7264C236.808 52.9026 240.93 45.345 240.526 38.0877C240.311 34.2449 238.83 30.4707 236.071 27.6592C233.309 24.8441 229.282 23.0097 224.01 23.0262H210.164C210.02 23.0262 209.901 23.1376 209.891 23.281C209.882 23.4244 209.985 23.5507 210.128 23.5698C211.599 23.7675 212.727 24.0078 213.508 24.7963C214.285 25.5803 214.772 26.967 214.772 29.6111V62.5134C214.772 65.1632 214.284 66.5497 213.508 67.3321C212.727 68.1193 211.599 68.357 210.128 68.5547C209.985 68.5738 209.882 68.7001 209.891 68.8435C209.901 68.9869 210.02 69.0983 210.164 69.0983H225.124C225.268 69.0983 225.387 68.9871 225.397 68.8439C225.407 68.7007 225.304 68.5744 225.162 68.5548C223.724 68.3572 222.594 68.1172 221.804 67.3273C221.019 66.5426 220.516 65.1554 220.516 62.5134V55.1751H224.011C225.21 55.1751 226.373 55.9959 227.671 57.6197C228.963 59.2347 230.334 61.5735 231.963 64.4709C237.172 73.7617 246.461 76.5786 254.773 76.5786C258.567 76.5786 262.174 75.9959 265.124 75.1484C265.265 75.1077 265.349 74.9624 265.313 74.8197L265.248 74.5576C265.23 74.4868 265.185 74.426 265.122 74.3888C265.059 74.3517 264.984 74.3413 264.913 74.3599C263.242 74.8021 261.179 75.1262 258.868 75.1262C252.239 75.1262 243.948 72.4961 238.022 63.284C236.492 60.8744 235.06 58.8431 233.296 57.3268C231.867 56.0983 230.226 55.2128 228.152 54.7264ZM220.844 24.6528C221.507 23.7729 222.546 23.6159 223.88 23.6159H224.011C227.796 23.6159 230.627 25.5813 232.499 28.4968C234.366 31.4044 235.287 35.2635 235.283 39.1064C235.279 42.9494 234.35 46.8083 232.481 49.7156C230.607 52.6306 227.78 54.5963 224.011 54.5963H220.243C220.092 54.5963 219.97 54.4741 219.97 54.3233V29.349C219.97 28.1409 220.031 27.1806 220.168 26.4204C220.305 25.661 220.521 25.0822 220.844 24.6528ZM220.516 54.0503H224.011C227.558 54.0503 230.227 52.2118 232.021 49.4203C233.821 46.6212 234.733 42.8714 234.737 39.1058C234.741 35.3402 233.837 31.5907 232.04 28.7918C230.247 26.0009 227.575 24.1619 224.011 24.1619H223.88C222.548 24.1619 221.769 24.3326 221.28 24.9814C221.028 25.3164 220.834 25.8024 220.705 26.5172C220.577 27.2312 220.516 28.1547 220.516 29.349V54.0503Z" fill="#482817"/>
<path d="M269.144 69.8081C257.241 69.8081 245.403 61.8692 245.403 46.0678C245.403 30.2008 257.306 22.3274 269.144 22.3274C281.047 22.3274 292.884 30.2008 292.884 46.0678C292.884 61.8692 280.981 69.8081 269.144 69.8081ZM271.098 68.8908C279.616 68.8908 287.621 62.2623 287.686 49.311C287.817 32.0791 276.755 23.2338 266.676 23.2338C258.289 23.2338 250.612 29.349 250.612 41.8963C250.612 60.0455 261.216 68.8908 271.098 68.8908Z" fill="#482817"/>
<path fill-rule="evenodd" clip-rule="evenodd" d="M253.016 28.4515C248.622 32.3489 245.676 38.2083 245.676 46.0676C245.676 53.8944 248.605 59.7539 252.992 63.6594C257.383 67.5694 263.251 69.535 269.144 69.535C275.004 69.535 280.872 67.5695 285.272 63.6592C289.666 59.7535 292.611 53.8939 292.611 46.0676C292.611 38.2078 289.682 32.3485 285.296 28.4514C280.905 24.5498 275.038 22.6002 269.144 22.6002C263.283 22.6002 257.415 24.5496 253.016 28.4515ZM252.653 28.043C257.165 24.0415 263.167 22.0542 269.144 22.0542C275.153 22.0542 281.155 24.0414 285.659 28.0432C290.168 32.0495 293.157 38.0604 293.157 46.0676C293.157 54.0427 290.151 60.0533 285.634 64.0674C281.123 68.0769 275.121 70.081 269.144 70.081C263.134 70.081 257.132 68.0771 252.628 64.0672C248.12 60.0529 245.13 54.0422 245.13 46.0676C245.13 38.0599 248.137 32.0491 252.653 28.043ZM255.302 27.6707C258.326 24.5146 262.416 22.9606 266.676 22.9606C276.926 22.9606 288.091 31.9497 287.959 49.3127C287.926 55.8453 285.89 60.8101 282.761 64.1443C279.633 67.4778 275.429 69.1637 271.098 69.1637C261.03 69.1637 250.339 60.1584 250.339 41.8961C250.339 35.5656 252.277 30.8278 255.302 27.6707ZM287.959 49.3127C287.959 49.3128 287.959 49.3129 287.959 49.3129L287.686 49.3109L287.959 49.3122C287.959 49.3124 287.959 49.3125 287.959 49.3127ZM255.696 28.0485C252.786 31.0859 250.885 35.6794 250.885 41.8961C250.885 59.9323 261.402 68.6177 271.098 68.6177C275.285 68.6177 279.343 66.9892 282.363 63.7707C285.382 60.5529 287.381 55.7279 287.413 49.3095L287.413 49.3088C287.543 32.208 276.584 23.5066 266.676 23.5066C262.549 23.5066 258.607 25.0102 255.696 28.0485Z" fill="#482817"/>
<path d="M314.67 69.8079C307.648 69.8079 300.692 64.9266 300.746 55.2405V29.6109C300.746 24.2819 298.792 23.6922 295.865 23.2991H310.891C307.965 23.6922 306.01 24.271 306.01 29.6109V55.2295C306.01 63.9438 311.339 68.1044 316.745 68.1044C322.336 68.1044 327.992 63.6817 327.992 55.2295V32.8651C327.992 27.5361 326.038 23.6922 323.111 23.31H333.387C330.526 23.7031 328.571 27.5361 328.571 32.8651V55.2405C328.724 64.9266 321.691 69.8079 314.67 69.8079Z" fill="#482817"/>
<path fill-rule="evenodd" clip-rule="evenodd" d="M295.593 23.2809C295.602 23.1375 295.721 23.0261 295.865 23.0261H310.891C311.035 23.0261 311.154 23.1375 311.164 23.2809C311.173 23.4243 311.07 23.5506 310.928 23.5697C309.456 23.7674 308.328 24.0051 307.547 24.7923C306.771 25.5747 306.283 26.9612 306.283 29.611V55.2296C306.283 59.5298 307.597 62.6773 309.549 64.7476C311.502 66.819 314.112 67.8314 316.745 67.8314C322.179 67.8314 327.719 63.537 327.719 55.2296V32.8652C327.719 30.2304 327.235 27.9827 326.406 26.3566C325.576 24.7295 324.419 23.7562 323.076 23.5808C322.933 23.5621 322.829 23.4359 322.838 23.2923C322.848 23.1487 322.967 23.037 323.111 23.037H333.387C333.53 23.037 333.649 23.1482 333.659 23.2914C333.669 23.4346 333.566 23.561 333.424 23.5805C332.114 23.7605 330.972 24.7327 330.15 26.3598C329.328 27.9851 328.844 30.2305 328.844 32.8652V55.2383C328.921 60.1523 327.173 63.8696 324.497 66.3566C321.824 68.8397 318.242 70.081 314.67 70.081C311.097 70.081 307.534 68.8395 304.868 66.3563C302.199 63.8694 300.446 60.1528 300.473 55.2397V29.611C300.473 26.9669 299.986 25.5802 299.209 24.7962C298.428 24.0077 297.3 23.7673 295.829 23.5697C295.686 23.5506 295.583 23.4243 295.593 23.2809ZM298.304 23.5721C298.787 23.7682 299.223 24.0344 299.597 24.412C300.53 25.3534 301.019 26.926 301.019 29.611V55.2405L301.019 55.2421C300.993 60.0148 302.691 63.5816 305.241 65.9568C307.795 68.3358 311.22 69.535 314.67 69.535C318.119 69.535 321.564 68.3356 324.125 65.9566C326.681 63.5817 328.373 60.016 328.298 55.2448L328.298 55.2405H328.298V32.8652C328.298 30.1708 328.792 27.8352 329.662 26.1134C330.23 24.9911 330.966 24.1153 331.841 23.5831H324.692C325.577 24.1139 326.321 24.9879 326.892 26.1085C327.772 27.8322 328.265 30.1709 328.265 32.8652V55.2296C328.265 63.8266 322.492 68.3774 316.745 68.3774C313.971 68.3774 311.214 67.3096 309.152 65.1222C307.088 62.9336 305.737 59.6437 305.737 55.2296V29.611C305.737 26.9208 306.227 25.3479 307.159 24.4077C307.532 24.0321 307.967 23.7672 308.448 23.5721H298.304Z" fill="#482817"/>
<path d="M359.606 69.7424C347.31 69.7424 335.735 61.8035 335.735 46.4607C335.735 30.8558 347.769 22.4583 360.185 22.4583C365.907 22.4583 371.695 24.2164 376.51 27.8528L374.49 37.2223C375.331 30.2006 369.937 23.2445 361.419 23.2445C350.619 22.9169 341.522 30.4627 341.577 44.4514C341.577 61.4213 352.246 68.574 361.288 68.574C367.851 68.574 373.584 64.741 373.584 58.1016V53.3513C373.584 48.0223 371.629 47.3671 368.703 47.0395H383.663C380.802 47.3671 378.782 48.0114 378.782 53.3513V69.2183C378.072 67.067 377.024 66.0951 375.397 66.0951C374.359 66.0951 373.191 66.4882 371.695 67.067C367.873 68.8251 363.712 69.7424 359.606 69.7424Z" fill="#482817"/>
<path fill-rule="evenodd" clip-rule="evenodd" d="M343.485 28.8118C338.984 32.8087 336.008 38.7344 336.008 46.4608C336.008 54.0577 338.871 59.8021 343.24 63.6503C347.614 67.5028 353.514 69.4695 359.606 69.4695C363.672 69.4695 367.794 68.561 371.58 66.819C371.586 66.8167 371.591 66.8145 371.596 66.8124C373.086 66.2362 374.3 65.8222 375.396 65.8222C376.271 65.8222 377.008 66.086 377.618 66.6495C377.958 66.9632 378.252 67.364 378.509 67.851V53.3514C378.509 50.6591 379.016 49.0711 379.956 48.1235C380.313 47.763 380.726 47.504 381.178 47.3125H371.211C371.667 47.5051 372.079 47.7657 372.435 48.1287C373.367 49.0782 373.857 50.6665 373.857 53.3514V58.1016C373.857 61.5085 372.382 64.204 370.067 66.0415C367.756 67.8745 364.619 68.847 361.288 68.847C356.697 68.847 351.697 67.0316 347.846 63.0667C343.991 59.0988 341.304 52.9963 341.304 44.452C341.304 44.4518 341.304 44.4516 341.304 44.4515H341.577L341.304 44.4525C341.304 44.4523 341.304 44.4522 341.304 44.452C341.276 37.3968 343.558 31.9391 347.235 28.2857C350.91 24.6341 355.958 22.8068 361.423 22.9716C361.421 22.9716 361.42 22.9716 361.419 22.9716V23.2446L361.427 22.9717C361.426 22.9716 361.424 22.9716 361.423 22.9716C369.005 22.9735 374.174 28.3902 374.788 34.5466L374.223 37.1648L374.49 37.2223L374.761 37.2548C374.87 36.346 374.877 35.4385 374.788 34.5466L376.207 27.9663C376.253 28.0009 376.3 28.0357 376.346 28.0707L376.51 27.8529L376.243 27.7953L376.207 27.9663C371.469 24.4388 365.797 22.7313 360.185 22.7313C354.036 22.7313 347.99 24.8109 343.485 28.8118ZM343.122 28.4036C347.738 24.3045 353.917 22.1853 360.185 22.1853C365.962 22.1853 371.809 23.9604 376.675 27.635C376.76 27.699 376.8 27.8065 376.777 27.9104L374.757 37.2799C374.726 37.4224 374.589 37.5157 374.445 37.4916C374.301 37.4675 374.202 37.3347 374.219 37.1899C375.041 30.3291 369.771 23.5176 361.419 23.5176H361.41L361.41 23.5174C356.077 23.3557 351.178 25.1374 347.62 28.6731C344.062 32.2078 341.823 37.5171 341.85 44.4504L341.85 44.4515C341.85 52.8768 344.497 58.8354 348.237 62.6862C351.981 66.5401 356.837 68.301 361.288 68.301C364.519 68.301 367.53 67.3571 369.727 65.6138C371.919 63.8749 373.311 61.3342 373.311 58.1016V53.3514C373.311 50.7072 372.823 49.3034 372.046 48.5111C371.266 47.7164 370.139 47.475 368.672 47.3108C368.528 47.2947 368.422 47.169 368.43 47.0243C368.438 46.8797 368.558 46.7665 368.702 46.7665H383.663C383.808 46.7665 383.927 46.8795 383.936 47.024C383.944 47.1685 383.838 47.2943 383.694 47.3108C382.26 47.4749 381.132 47.7134 380.343 48.5081C379.558 49.2996 379.055 50.7037 379.055 53.3514V69.2183C379.055 69.3524 378.957 69.4666 378.825 69.4879C378.693 69.5091 378.564 69.4312 378.522 69.3039C378.175 68.2503 377.754 67.5184 377.248 67.0506C376.75 66.5903 376.149 66.3682 375.396 66.3682C374.419 66.3682 373.299 66.7391 371.801 67.3187C367.946 69.0906 363.749 70.0155 359.606 70.0155C353.401 70.0155 347.366 68.0127 342.879 64.06C338.386 60.1031 335.462 54.2067 335.462 46.4608C335.462 38.5823 338.502 32.5067 343.122 28.4036Z" fill="#482817"/>
<path d="M413.792 68.7596V68.8251H385.367C388.293 68.432 390.248 67.8532 390.248 62.5133V29.6109C390.248 24.2819 388.293 23.6922 385.367 23.2991H413.005L414.895 34.3502C414.185 32.199 413.005 23.8778 402.992 23.8778H395.446V44.5606H403.964C408.124 44.5606 408.517 40.8477 408.91 38.4453V51.2546C408.517 48.9177 408.135 45.1393 403.964 45.1393H395.446V62.7644C395.446 67.5802 395.839 68.2245 401.43 68.2245H403.767C413.781 68.2245 414.949 59.9034 415.67 57.7521L413.792 68.7596Z" fill="#482817"/>
<path fill-rule="evenodd" clip-rule="evenodd" d="M385.094 23.2809C385.104 23.1375 385.223 23.0261 385.367 23.0261H413.005C413.138 23.0261 413.252 23.122 413.275 23.2531L415.164 34.3043C415.188 34.4451 415.099 34.5807 414.961 34.6152C414.822 34.6497 414.68 34.5715 414.635 34.4358C414.561 34.2095 414.483 33.9251 414.392 33.5962C414.036 32.2967 413.489 30.3034 412.208 28.4633C410.622 26.1849 407.906 24.1509 402.992 24.1509H395.719V44.2876H403.964C404.962 44.2876 405.715 44.0654 406.294 43.7103C406.873 43.3549 407.294 42.8554 407.61 42.2736C408.193 41.2013 408.403 39.8847 408.587 38.7363C408.605 38.6228 408.623 38.511 408.641 38.4013C408.664 38.2609 408.791 38.1617 408.933 38.1733C409.074 38.1848 409.183 38.3032 409.183 38.4454V51.2547C409.183 51.3966 409.075 51.5149 408.933 51.5267C408.792 51.5385 408.665 51.44 408.641 51.3C408.62 51.1754 408.599 51.0477 408.578 50.9176C408.397 49.8051 408.186 48.513 407.614 47.4502C407.298 46.8638 406.876 46.3584 406.297 45.9981C405.718 45.6384 404.964 45.4124 403.964 45.4124H395.719V62.7645C395.719 63.9704 395.744 64.8919 395.864 65.604C395.983 66.3123 396.191 66.7787 396.53 67.1032C396.872 67.4301 397.382 67.6477 398.181 67.7793C398.98 67.911 400.033 67.9516 401.43 67.9516H403.767C408.681 67.9516 411.395 65.9176 412.979 63.6392C414.252 61.8098 414.799 59.8303 415.159 58.5297C415.252 58.1905 415.333 57.8976 415.411 57.6654C415.456 57.5302 415.598 57.4526 415.736 57.4874C415.875 57.5221 415.963 57.6575 415.939 57.7981L414.065 68.7828V68.8252C414.065 68.976 413.942 69.0982 413.792 69.0982H385.367C385.223 69.0982 385.104 68.9868 385.094 68.8434C385.085 68.7 385.188 68.5737 385.33 68.5546C386.802 68.3569 387.93 68.1192 388.711 67.332C389.487 66.5496 389.975 65.1631 389.975 62.5133V29.611C389.975 26.9669 389.487 25.5802 388.711 24.7962C387.93 24.0077 386.802 23.7673 385.33 23.5697C385.188 23.5506 385.085 23.4243 385.094 23.2809ZM387.805 23.5721C388.288 23.7682 388.725 24.0344 389.099 24.412C390.031 25.3534 390.521 26.926 390.521 29.611V62.5133C390.521 65.2035 390.031 66.7764 389.099 67.7166C388.726 68.0922 388.291 68.3571 387.81 68.5522H413.55L414.754 61.4946C414.42 62.2969 413.991 63.1411 413.427 63.951C411.744 66.371 408.866 68.4976 403.767 68.4976H401.43C400.032 68.4976 398.939 68.4576 398.092 68.318C397.244 68.1784 396.608 67.9339 396.153 67.4977C395.694 67.0592 395.455 66.4615 395.325 65.6946C395.197 64.9314 395.173 63.9665 395.173 62.7645V45.1394C395.173 44.9886 395.295 44.8664 395.446 44.8664H403.964C405.049 44.8664 405.907 45.1127 406.585 45.5344C407.263 45.9557 407.744 46.5409 408.094 47.1912C408.323 47.6167 408.499 48.0747 408.637 48.5388V41.1823C408.497 41.6494 408.321 42.1087 408.09 42.5342C407.738 43.1809 407.257 43.7598 406.579 44.1756C405.902 44.5917 405.046 44.8336 403.964 44.8336H395.446C395.295 44.8336 395.173 44.7114 395.173 44.5606V23.8779C395.173 23.7271 395.295 23.6049 395.446 23.6049H402.992C408.091 23.6049 410.972 25.7314 412.656 28.1514C413.214 28.9532 413.641 29.7884 413.974 30.5833L412.775 23.5721H387.805Z" fill="#482817"/>
</svg>
