<svg width="184" height="43" viewBox="0 0 184 43" fill="none" xmlns="http://www.w3.org/2000/svg">
<path d="M115.134 35.898C115.661 36.828 115.289 37.975 114.297 38.471C113.305 38.967 112.096 38.626 111.569 37.696L109.492 34.038C108.965 33.108 109.337 31.961 110.329 31.465C111.321 30.969 112.53 31.31 113.057 32.24L115.134 35.898Z" fill="white"/>
<path d="M8.866 19.654H3.596V24.428H8.866C10.168 24.428 11.222 23.374 11.222 22.041C11.222 20.739 10.137 19.654 8.866 19.654ZM3.565 16.182H8.494C9.548 16.182 10.385 15.314 10.385 14.26C10.385 13.175 9.548 12.276 8.494 12.276H3.565V16.182ZM0 10.354C0 9.51702 0.805999 8.83502 1.767 8.83502H8.463C11.532 8.83502 14.074 11.005 14.074 13.981C14.074 15.934 12.865 17.05 11.873 17.639C13.361 18.321 14.942 19.809 14.942 22.196C14.942 25.389 12.214 27.776 8.897 27.776H1.767C0.774999 27.776 0 27.094 0 26.257C0 26.319 0 10.354 0 10.354ZM25.823 13.082C26.567 13.268 27.125 13.95 27.125 14.787C27.125 15.779 26.381 16.554 25.451 16.554C25.296 16.554 25.048 16.492 24.459 16.461C22.537 16.337 21.142 18.166 21.142 20.305V26.97C21.142 27.838 20.336 28.52 19.406 28.52C18.414 28.52 17.67 27.807 17.67 26.97V14.601C17.67 13.795 18.414 13.175 19.282 13.175C20.15 13.175 20.894 13.826 20.894 14.601V15.438H20.956C21.7 14.136 22.723 12.927 24.645 12.927C25.017 12.927 25.42 12.989 25.823 13.082ZM35.309 16.368C32.922 16.368 30.969 18.321 30.969 20.708C30.969 23.095 32.922 25.079 35.309 25.079C37.758 25.079 39.649 23.126 39.649 20.708C39.649 18.321 37.727 16.368 35.309 16.368ZM35.309 28.52C30.814 28.52 27.156 25.203 27.156 20.708C27.156 16.244 30.783 12.927 35.309 12.927C39.835 12.927 43.462 16.244 43.462 20.708C43.431 25.203 39.835 28.52 35.309 28.52ZM58.714 25.792C59.272 26.381 59.148 27.373 58.342 28.086C57.598 28.675 56.606 28.768 56.079 28.086L50.685 22.227C50.344 21.824 50.158 21.421 50.158 20.894C50.158 20.336 50.344 19.933 50.685 19.561L55.986 13.733C56.544 13.051 57.536 13.144 58.249 13.733C59.024 14.446 59.179 15.438 58.621 16.027L54.25 20.925L58.714 25.792ZM45.477 10.385C45.477 9.51702 46.314 8.86602 47.306 8.86602C48.298 8.86602 49.135 9.57902 49.135 10.385V26.97C49.135 27.838 48.298 28.489 47.306 28.489C46.314 28.489 45.477 27.776 45.477 26.97V10.385ZM72.075 19.251C71.455 17.484 69.843 16.306 67.952 16.306C66.092 16.306 64.48 17.453 63.86 19.251H72.075ZM74.183 22.351H63.829C64.449 24.118 66.185 25.296 68.076 25.296C69.378 25.296 70.99 24.8 71.889 23.994C72.416 23.436 73.346 23.436 74.059 24.056C74.741 24.614 74.896 25.575 74.4 26.133C72.819 27.652 70.432 28.52 68.076 28.52C63.55 28.52 59.737 25.172 59.737 20.708C59.737 16.244 63.426 12.927 67.952 12.927C72.385 12.927 76.043 16.368 76.043 20.708C76.012 21.576 75.175 22.351 74.183 22.351ZM86.242 13.082C86.986 13.268 87.544 13.95 87.544 14.787C87.544 15.779 86.8 16.554 85.87 16.554C85.715 16.554 85.467 16.492 84.878 16.461C82.956 16.337 81.53 18.166 81.53 20.305V26.97C81.53 27.838 80.724 28.52 79.794 28.52C78.802 28.52 78.058 27.807 78.058 26.97V14.601C78.058 13.795 78.802 13.175 79.67 13.175C80.569 13.175 81.282 13.826 81.282 14.601V15.438H81.344C82.088 14.136 83.111 12.927 85.033 12.927C85.405 12.927 85.808 12.989 86.242 13.082ZM96.007 21.762C95.852 21.762 95.728 21.7 95.635 21.576C94.364 19.964 93.62 17.918 93.62 15.81C93.62 11.284 96.875 7.40902 101.246 6.82002C101.463 6.78902 101.68 6.91302 101.742 7.13002C101.804 7.34702 101.742 7.56402 101.556 7.68802C98.084 9.88902 96.007 13.702 96.007 17.887C96.007 18.972 96.162 20.088 96.441 21.142C96.503 21.359 96.41 21.576 96.224 21.7C96.162 21.731 96.069 21.762 96.007 21.762Z" fill="white"/>
<path d="M124.651 19.809C124.651 17.98 123.256 16.523 121.489 16.523C119.691 16.523 118.296 17.98 118.296 19.809V27.001C118.296 27.869 117.459 28.52 116.498 28.52C115.506 28.52 114.7 27.807 114.7 27.001V10.416C114.7 9.548 115.537 8.897 116.498 8.897C117.49 8.897 118.296 9.61 118.296 10.416V15.5C118.327 15.5 118.358 15.531 118.358 15.5C119.04 14.322 120.528 13.051 122.574 13.051C125.984 13.051 128.247 15.593 128.247 19.375V27.032C128.247 27.9 127.41 28.551 126.449 28.551C125.457 28.551 124.651 27.838 124.651 27.032V19.809ZM142.631 19.251C142.011 17.484 140.399 16.306 138.508 16.306C136.648 16.306 135.036 17.453 134.416 19.251H142.631ZM144.739 22.351H134.385C135.005 24.118 136.741 25.296 138.632 25.296C139.934 25.296 141.546 24.8 142.445 23.994C142.972 23.436 143.933 23.436 144.615 24.056C145.297 24.614 145.452 25.575 144.956 26.133C143.375 27.652 140.988 28.52 138.632 28.52C134.106 28.52 130.293 25.172 130.293 20.708C130.293 16.244 133.982 12.927 138.508 12.927C142.941 12.927 146.599 16.368 146.599 20.708C146.568 21.576 145.762 22.351 144.739 22.351ZM160.921 24.211C161.603 24.924 161.727 25.947 160.983 26.598C159.619 27.807 157.852 28.52 155.868 28.52C151.435 28.52 147.901 25.172 147.901 20.708C147.901 16.244 151.435 12.927 155.868 12.927C157.821 12.927 159.588 13.609 160.983 14.849C161.727 15.531 161.634 16.461 160.921 17.236C160.27 17.949 159.247 18.042 158.658 17.453C157.883 16.771 156.922 16.43 155.899 16.43C153.512 16.43 151.652 18.383 151.652 20.77C151.652 23.157 153.543 25.141 155.899 25.141C156.922 25.141 157.914 24.738 158.658 24.118C159.247 23.436 160.301 23.56 160.921 24.211ZM177.444 25.792C178.002 26.381 177.878 27.373 177.072 28.086C176.328 28.675 175.336 28.768 174.809 28.086L169.446 22.227C169.105 21.824 168.919 21.421 168.919 20.894C168.919 20.336 169.105 19.933 169.446 19.561L174.747 13.733C175.305 13.051 176.297 13.144 177.01 13.733C177.785 14.446 177.94 15.438 177.382 16.027L173.011 20.925L177.444 25.792ZM164.238 10.385C164.238 9.517 165.075 8.866 166.067 8.866C167.059 8.866 167.896 9.579 167.896 10.385V26.97C167.896 27.838 167.059 28.489 166.067 28.489C165.075 28.489 164.238 27.776 164.238 26.97V10.385ZM141.825 41.54C142.228 41.54 142.569 41.199 142.569 40.765C142.569 40.362 142.228 40.021 141.825 40.021C141.422 40.021 141.081 40.362 141.081 40.765C141.112 41.199 141.422 41.54 141.825 41.54ZM141.081 41.819C141.081 41.974 140.957 42.098 140.771 42.098C140.616 42.098 140.461 41.974 140.461 41.819V38.967C140.461 38.812 140.616 38.688 140.771 38.688C140.926 38.688 141.081 38.812 141.081 38.967V39.866C141.267 39.618 141.515 39.432 141.918 39.432C142.631 39.432 143.158 40.021 143.158 40.765C143.158 41.54 142.6 42.098 141.918 42.098C141.546 42.098 141.236 41.912 141.05 41.602L141.081 41.819ZM143.902 42.377L144.181 41.788L143.189 39.804C143.127 39.68 143.189 39.494 143.375 39.432C143.53 39.37 143.716 39.401 143.778 39.556L144.522 41.044L145.266 39.556C145.328 39.432 145.514 39.37 145.7 39.432C145.855 39.494 145.948 39.68 145.886 39.804L144.491 42.656C144.429 42.78 144.243 42.842 144.057 42.78C143.933 42.656 143.84 42.532 143.902 42.377ZM148.614 35.867C148.614 35.557 148.893 35.309 149.234 35.309H152.83C153.14 35.309 153.357 35.588 153.357 35.929C153.357 36.27 153.109 36.549 152.83 36.549H149.854V38.068H152.241C152.52 38.068 152.768 38.347 152.768 38.688C152.768 39.029 152.52 39.308 152.241 39.308H149.854V41.602C149.854 41.912 149.575 42.16 149.234 42.16C148.893 42.16 148.614 41.912 148.614 41.602V35.867ZM154.721 35.867C154.721 35.557 155.031 35.34 155.403 35.34C155.775 35.34 156.085 35.588 156.085 35.867V41.571C156.085 41.881 155.775 42.098 155.403 42.098C155.031 42.098 154.721 41.85 154.721 41.571V35.867ZM158.131 35.898C158.131 35.588 158.472 35.309 158.906 35.309C159.247 35.309 159.526 35.464 159.65 35.681L162.254 39.804H162.285V35.836C162.285 35.526 162.595 35.309 162.936 35.309C163.308 35.309 163.587 35.557 163.587 35.836V41.509C163.587 41.819 163.246 42.098 162.812 42.098C162.471 42.098 162.192 41.943 162.068 41.726L159.464 37.572H159.433V41.54C159.433 41.85 159.123 42.067 158.782 42.067C158.441 42.067 158.131 41.819 158.131 41.54V35.898ZM168.578 36.518H166.904V38.657H168.578C169.167 38.657 169.663 38.161 169.663 37.603C169.663 37.014 169.167 36.518 168.578 36.518ZM165.571 35.867C165.571 35.557 165.881 35.309 166.222 35.309H168.609C169.942 35.309 171.027 36.301 171.027 37.603C171.027 38.595 170.438 39.339 169.663 39.68L170.469 41.23C170.624 41.509 170.469 41.85 170.128 42.036C169.818 42.191 169.415 42.067 169.291 41.819L168.299 39.897H166.904V41.571C166.904 41.881 166.594 42.129 166.253 42.129C165.912 42.129 165.602 41.881 165.602 41.571V35.867H165.571ZM175.46 37.169H175.398L174.499 39.618H176.359L175.46 37.169ZM178.467 41.323C178.56 41.602 178.405 41.912 178.064 42.067C177.723 42.16 177.351 42.067 177.227 41.788L176.793 40.796H174.034L173.6 41.788C173.476 42.067 173.104 42.16 172.763 42.067C172.422 41.943 172.267 41.602 172.36 41.323L174.592 35.743C174.871 35.154 175.894 35.154 176.142 35.743L178.467 41.323ZM102.207 30.566C93.7438 30.566 86.8618 23.715 86.8618 15.283C86.8618 6.851 93.7748 0 102.207 0C106.485 0 110.577 1.767 113.491 4.929C114.173 5.673 114.142 6.82 113.398 7.533C112.623 8.215 111.476 8.184 110.794 7.44C108.562 5.053 105.493 3.72 102.207 3.72C95.7588 3.72 90.5508 8.897 90.5508 15.314C90.5508 21.7 95.7588 26.908 102.207 26.908C105.214 26.908 108.066 25.792 110.236 23.746C110.98 23.033 112.127 23.064 112.84 23.808C113.553 24.552 113.522 25.699 112.778 26.412C109.926 29.078 106.144 30.566 102.207 30.566Z" fill="white"/>
<path d="M114.607 36.053C114.762 36.27 114.638 36.518 114.359 36.642C114.08 36.766 113.708 36.673 113.553 36.456L112.685 35.309C112.53 35.092 112.623 34.844 112.933 34.72C113.212 34.596 113.584 34.689 113.739 34.906L114.607 36.053Z" fill="white"/>
<path d="M109.647 29.295C110.019 29.14 110.422 29.202 110.577 29.45C110.732 29.698 110.546 30.039 110.174 30.225L108.19 31.186C107.818 31.341 107.415 31.279 107.26 31.031C107.105 30.783 107.291 30.442 107.663 30.256L109.647 29.295Z" fill="white"/>
<path d="M181.133 4.58803C181.381 4.58803 181.567 4.37103 181.567 4.09203C181.567 3.84403 181.412 3.62703 181.133 3.62703H180.327V4.58803H181.133ZM181.505 6.47903L180.947 5.20803H180.327V6.47903H179.769V3.00703H181.133C181.691 3.00703 182.156 3.50303 182.156 4.09203C182.156 4.58803 181.908 4.96003 181.536 5.11503L182.156 6.44803H181.505V6.47903ZM180.885 2.38703C179.738 2.38703 178.808 3.44103 178.808 4.77403C178.808 6.10703 179.738 7.19203 180.885 7.19203C182.032 7.19203 182.962 6.13803 182.962 4.77403C182.931 3.47203 182.001 2.38703 180.885 2.38703ZM180.885 7.50203C179.583 7.50203 178.498 6.29303 178.498 4.77403C178.498 3.31703 179.552 2.04603 180.885 2.04603C182.156 2.04603 183.241 3.25503 183.241 4.77403C183.21 6.26203 182.156 7.50203 180.885 7.50203Z" fill="white"/>
</svg>
