<svg width="71" height="101" viewBox="0 0 71 101" fill="none" xmlns="http://www.w3.org/2000/svg">
<path d="M27.1984 99.832H1.81189C1.59656 99.832 1.39 99.7465 1.23774 99.5942C1.08549 99.4419 1 99.2354 1 99.0201V55.503C0.999981 55.3946 1.02203 55.2872 1.0649 55.1876L9.37857 35.41V1.81189C9.37857 1.59656 9.46417 1.39006 9.61643 1.2378C9.76869 1.08554 9.97513 1 10.1905 1H18.8243C19.0397 1 19.2462 1.08554 19.3985 1.2378C19.5507 1.39006 19.6362 1.59656 19.6362 1.81189V35.41L27.9499 55.1876C27.9928 55.2872 28.0149 55.3946 28.0149 55.503V99.0387C28.01 99.2516 27.9217 99.454 27.769 99.6024C27.6163 99.7508 27.4113 99.8333 27.1984 99.832ZM2.60984 98.2082H26.3726V55.6654L18.0589 35.8879C18.016 35.7882 17.9939 35.6809 17.9939 35.5724V2.63304H10.9885V35.5724C10.9885 35.6809 10.9664 35.7882 10.9235 35.8879L2.60984 55.6654V98.2082Z" fill="#AF6900" stroke="#AF6900" stroke-width="0.5"/>
<path d="M53.4524 99.8322H44.3407C44.1254 99.8322 43.9189 99.7467 43.7666 99.5944C43.6143 99.4422 43.5289 99.2356 43.5289 99.0203C43.5289 98.805 43.6143 98.5985 43.7666 98.4462C43.9189 98.294 44.1254 98.2084 44.3407 98.2084H52.6637V76.1715C49.0476 74.3369 45.5587 72.2615 42.2205 69.9595C38.7457 67.5656 35.1688 62.6061 37.8642 52.5666C39.2885 47.2545 42.5407 38.783 42.5731 38.6995C42.6315 38.5464 42.7351 38.4147 42.8702 38.3219C43.0053 38.229 43.1655 38.1795 43.3294 38.1799H53.4756C53.6909 38.1799 53.8975 38.2655 54.0497 38.4177C54.202 38.57 54.2875 38.7765 54.2875 38.9918C54.2875 39.2071 54.202 39.4136 54.0497 39.5659C53.8975 39.7182 53.6909 39.8037 53.4756 39.8037H43.8768C43.1531 41.7198 40.6292 48.5118 39.4184 52.9887C38.0683 58.0224 37.6136 64.8237 43.1298 68.6233C46.5315 70.9785 50.0975 73.087 53.8003 74.9328C53.9398 74.9977 54.0576 75.1013 54.1399 75.2313C54.2221 75.3612 54.2653 75.5121 54.2643 75.6658V99.0528C54.2559 99.2624 54.1667 99.4607 54.0153 99.606C53.8639 99.7513 53.6622 99.8324 53.4524 99.8322Z" fill="#AF6900" stroke="#AF6900" stroke-width="0.5"/>
<path d="M53.4523 76.4636C53.2682 76.4633 53.0896 76.4005 52.9459 76.2854C52.8022 76.1703 52.7019 76.0097 52.6614 75.8301C52.6209 75.6504 52.6428 75.4624 52.7232 75.2968C52.8037 75.1312 52.9381 74.9978 53.1044 74.9187C56.8064 73.0712 60.3722 70.9628 63.7749 68.6092C69.2864 64.8095 68.8364 58.0083 67.4864 52.9746C66.2848 48.4976 63.7749 41.7056 63.028 39.7895H53.4477C53.2324 39.7895 53.0259 39.704 52.8737 39.5517C52.7214 39.3995 52.6358 39.193 52.6358 38.9777C52.6358 38.7623 52.7214 38.5558 52.8737 38.4036C53.0259 38.2513 53.2324 38.1658 53.4477 38.1658H63.5893C63.7539 38.1651 63.9148 38.2144 64.0507 38.3072C64.1866 38.4 64.2909 38.5319 64.3502 38.6854C64.3826 38.7689 67.6302 47.2403 69.0545 52.5524C71.75 62.5919 68.173 67.556 64.7027 69.9453C61.2246 72.3481 57.5797 74.5001 53.7956 76.3847C53.6878 76.4343 53.571 76.4612 53.4523 76.4636Z" fill="#AF6900" stroke="#AF6900" stroke-width="0.5"/>
<path d="M62.5826 99.832H53.4523C53.237 99.832 53.0306 99.7465 52.8783 99.5942C52.726 99.442 52.6404 99.2355 52.6404 99.0201C52.6404 98.8048 52.726 98.5983 52.8783 98.4461C53.0306 98.2938 53.237 98.2083 53.4523 98.2083H62.5826C62.798 98.2083 63.0044 98.2938 63.1567 98.4461C63.3089 98.5983 63.3945 98.8048 63.3945 99.0201C63.3945 99.2355 63.3089 99.442 63.1567 99.5942C63.0044 99.7465 62.798 99.832 62.5826 99.832Z" fill="#AF6900" stroke="#AF6900" stroke-width="0.5"/>
<path d="M18.8243 12.6121H6.8269C6.61157 12.6121 6.40513 12.5265 6.25287 12.3743C6.10061 12.222 6.01501 12.0155 6.01501 11.8002C6.01501 11.5848 6.10061 11.3783 6.25287 11.2261C6.40513 11.0738 6.61157 10.9883 6.8269 10.9883H18.8243C19.0396 10.9883 19.2462 11.0738 19.3984 11.2261C19.5507 11.3783 19.6362 11.5848 19.6362 11.8002C19.6362 12.0155 19.5507 12.222 19.3984 12.3743C19.2462 12.5265 19.0396 12.6121 18.8243 12.6121Z" fill="#AF6900" stroke="#AF6900" stroke-width="0.5"/>
<path d="M6.92913 91.5092C6.71381 91.5092 6.50725 91.4236 6.35499 91.2714C6.20273 91.1191 6.11725 90.9126 6.11725 90.6973V67.9274C6.11725 67.712 6.20273 67.5055 6.35499 67.3533C6.50725 67.201 6.71381 67.1155 6.92913 67.1155C7.14446 67.1155 7.3509 67.201 7.50316 67.3533C7.65542 67.5055 7.74102 67.712 7.74102 67.9274V90.6973C7.74102 90.9126 7.65542 91.1191 7.50316 91.2714C7.3509 91.4236 7.14446 91.5092 6.92913 91.5092Z" fill="#AF6900" stroke="#AF6900" stroke-width="0.5"/>
<path d="M42.7263 59.9011C42.5109 59.9011 42.3044 59.8156 42.1521 59.6633C41.9999 59.5111 41.9144 59.3046 41.9144 59.0893C41.9144 54.2319 45.6815 44.2758 45.8439 43.8537C45.9208 43.6525 46.0745 43.4901 46.2711 43.4022C46.4677 43.3143 46.6912 43.3082 46.8924 43.3851C47.0936 43.462 47.256 43.6156 47.3439 43.8123C47.4317 44.0089 47.4379 44.2324 47.361 44.4336C47.3238 44.531 43.5381 54.5288 43.5381 59.0893C43.5381 59.3046 43.4525 59.5111 43.3003 59.6633C43.148 59.8156 42.9416 59.9011 42.7263 59.9011Z" fill="#AF6900" stroke="#AF6900" stroke-width="0.5"/>
</svg>
