<svg width="89" height="97" viewBox="0 0 89 97" fill="none" xmlns="http://www.w3.org/2000/svg">
<path d="M66.6718 95.9679C66.5341 95.969 66.3986 95.9331 66.2795 95.8642C66.1603 95.7952 66.0619 95.6956 65.9943 95.5757C65.9432 95.4867 65.9102 95.3886 65.8972 95.2869C65.8841 95.1852 65.8913 95.0819 65.9182 94.983C65.9451 94.884 65.9913 94.7914 66.0541 94.7103C66.1169 94.6292 66.1949 94.5613 66.2839 94.5104L75.925 89.0057L69.0029 76.8908C63.69 77.1612 58.3649 77.0734 53.0637 76.6279C47.6838 76.1822 40.5522 72.915 37.1558 59.9889C35.3417 53.0802 33.5498 41.4245 33.532 41.3086C33.5072 41.153 33.5307 40.9936 33.5993 40.8517C33.6678 40.7099 33.7781 40.5924 33.9154 40.5152L45.375 33.963C45.4629 33.8947 45.5643 33.846 45.6726 33.8201C45.7809 33.7943 45.8934 33.7919 46.0026 33.8132C46.1119 33.8345 46.2154 33.8789 46.306 33.9434C46.3967 34.008 46.4725 34.0912 46.5284 34.1875C46.5842 34.2838 46.6189 34.3909 46.6299 34.5017C46.6409 34.6124 46.628 34.7243 46.5922 34.8297C46.5564 34.9351 46.4985 35.0316 46.4224 35.1127C46.3462 35.1939 46.2535 35.2578 46.1505 35.3002L35.1545 41.5849C35.5245 43.9339 37.0889 53.5794 38.6668 59.5744C40.414 66.2246 44.3543 74.3101 53.193 75.0545C58.5769 75.5174 63.9869 75.5949 69.3818 75.2862C69.5285 75.2749 69.6753 75.3054 69.8055 75.374C69.9356 75.4426 70.0437 75.5466 70.1172 75.674L77.6856 88.9076C77.7881 89.0875 77.8153 89.3006 77.7614 89.5004C77.7057 89.6995 77.5747 89.8691 77.396 89.9729L67.0773 95.8654C66.954 95.9359 66.8138 95.9713 66.6718 95.9679Z" fill="#AF6900" stroke="#AF6900" stroke-width="0.543652"/>
<path d="M69.4397 76.86C69.2805 76.8608 69.1249 76.8125 68.994 76.7218C68.8244 76.6031 68.7086 76.4221 68.6719 76.2184C68.6352 76.0147 68.6805 75.8047 68.7979 75.6342C71.8041 71.1439 74.4853 66.4444 76.821 61.5716C80.6676 53.5753 75.7022 46.0782 70.8616 41.1975C66.4979 36.7982 58.983 30.5535 57.1466 29.0381L46.1506 35.3183C45.9761 35.3901 45.7815 35.3963 45.6029 35.3356C45.4242 35.2749 45.2736 35.1516 45.1789 34.9884C45.0843 34.8252 45.052 34.6332 45.088 34.448C45.1241 34.2628 45.226 34.0969 45.375 33.9812L56.8391 27.4334C56.977 27.3525 57.1365 27.3159 57.296 27.3287C57.4555 27.3414 57.6072 27.4029 57.7305 27.5048C57.8241 27.5805 66.9526 35.042 71.9937 40.1143C81.4075 49.6083 80.5918 57.3996 78.2339 62.2669C75.8657 67.2117 73.1426 71.9786 70.086 76.5301C70.0136 76.6339 69.9168 76.7183 69.8041 76.7758C69.6914 76.8333 69.5663 76.8622 69.4397 76.86Z" fill="#AF6900" stroke="#AF6900" stroke-width="0.543652"/>
<path d="M76.9903 90.0753C76.8181 90.0755 76.6507 90.0188 76.5142 89.914C76.3776 89.8092 76.2795 89.6622 76.2353 89.4958C76.191 89.3294 76.203 89.1531 76.2694 88.9943C76.3359 88.8355 76.453 88.7031 76.6025 88.6177L86.9211 82.7208C87.0089 82.6525 87.1104 82.6038 87.2187 82.5779C87.3269 82.5521 87.4396 82.5497 87.5488 82.571C87.6581 82.5923 87.7615 82.6367 87.8522 82.7012C87.9429 82.7658 88.0187 82.849 88.0745 82.9453C88.1304 83.0416 88.1649 83.1487 88.176 83.2595C88.187 83.3702 88.1741 83.4821 88.1383 83.5875C88.1025 83.6929 88.0446 83.7894 87.9684 83.8706C87.8923 83.9517 87.7995 84.0156 87.6966 84.058L77.3781 89.9549C77.2608 90.0266 77.1275 90.0679 76.9903 90.0753Z" fill="#AF6900" stroke="#AF6900" stroke-width="0.543652"/>
<path d="M14.2499 41.3533C14.1361 41.3537 14.0235 41.3294 13.9201 41.282C13.827 41.2393 13.7434 41.1786 13.6739 41.1034C13.6044 41.0282 13.5505 40.94 13.5153 40.8438C13.48 40.7477 13.4642 40.6455 13.4687 40.5433C13.4732 40.441 13.4978 40.3406 13.5413 40.2479C14.6734 37.8009 17.2096 36.4949 19.2911 35.6257L20.2316 35.2468C22.0814 34.498 23.8331 33.7938 25.1346 32.4922C25.7886 31.8165 26.2869 31.0061 26.5949 30.1176C26.9028 29.2291 27.013 28.2841 26.9175 27.3486C26.7303 25.5657 25.7274 24.3444 24.5641 22.9493L23.9266 22.1781C22.9103 20.9078 21.903 19.593 20.9313 18.3226C20.2538 17.4312 19.5942 16.5397 18.8944 15.6839L8.2683 2.12941C8.20509 2.04863 8.15836 1.95619 8.13086 1.85737C8.10337 1.75855 8.0957 1.65528 8.10812 1.55346C8.12054 1.45165 8.15279 1.35328 8.20323 1.26396C8.25367 1.17465 8.32127 1.09614 8.40204 1.03292C8.48282 0.969708 8.57527 0.923018 8.67409 0.895525C8.77291 0.868033 8.8761 0.86027 8.97792 0.872687C9.07974 0.885104 9.17817 0.917455 9.26749 0.96789C9.3568 1.01833 9.4353 1.08586 9.49851 1.16664L20.1157 14.7256C20.8022 15.6171 21.4796 16.5085 22.1615 17.3732C23.1288 18.6391 24.1273 19.9451 25.1346 21.1976L25.7541 21.9508C26.971 23.4083 28.2235 24.9149 28.4597 27.1837C28.5778 28.3485 28.4395 29.5251 28.0545 30.6309C27.6695 31.7366 27.0471 32.7446 26.2311 33.5843C24.7245 35.122 22.7365 35.9199 20.8199 36.7044L19.8929 37.0832C18.0743 37.8365 15.8813 38.9597 14.9587 40.9165C14.8947 41.0495 14.7939 41.1613 14.6683 41.2387C14.5427 41.3161 14.3975 41.3559 14.2499 41.3533Z" fill="#AF6900" stroke="#AF6900" stroke-width="0.543652"/>
<path d="M6.5032 36.4994C6.04361 36.499 5.58569 36.4436 5.13925 36.3345C4.34721 36.1408 3.60892 35.7712 2.97929 35.2531C2.34966 34.735 1.84484 34.0817 1.50228 33.3418C1.15972 32.6018 0.988303 31.7942 1.00062 30.9789C1.01294 30.1636 1.20869 29.3616 1.57345 28.6323C1.61652 28.5365 1.67854 28.4504 1.75572 28.3791C1.8329 28.3078 1.92361 28.2529 2.02255 28.2176C2.12148 28.1822 2.22651 28.1672 2.33138 28.1735C2.43624 28.1798 2.53878 28.2072 2.63281 28.254C2.72683 28.3009 2.81049 28.3663 2.87863 28.4462C2.94677 28.5262 2.99799 28.6191 3.02935 28.7193C3.0607 28.8196 3.07146 28.9252 3.06101 29.0297C3.05057 29.1342 3.0192 29.2356 2.96863 29.3277C2.70734 29.8473 2.56665 30.4192 2.55718 31.0008C2.54771 31.5823 2.66966 32.1585 2.91389 32.6864C3.15811 33.2142 3.51832 33.6802 3.9677 34.0495C4.41708 34.4187 4.94404 34.6818 5.50924 34.819C7.73787 35.3628 10.0422 33.9276 12.0168 32.4344C14.2053 30.7896 16.6657 28.9354 19.5941 29.1895C19.6963 29.1983 19.7957 29.2271 19.8867 29.2743C19.9777 29.3215 20.0585 29.3861 20.1245 29.4646C20.1905 29.543 20.2404 29.6337 20.2714 29.7314C20.3024 29.8291 20.3138 29.932 20.305 30.0341C20.2963 30.1363 20.2675 30.2357 20.2203 30.3267C20.1731 30.4177 20.1085 30.4985 20.03 30.5646C19.9516 30.6306 19.8609 30.6805 19.7632 30.7115C19.6655 30.7424 19.5626 30.7539 19.4605 30.7451C17.1427 30.5445 15.0344 32.1358 12.9841 33.6735C11.0541 35.1132 8.84326 36.4994 6.5032 36.4994Z" fill="#AF6900" stroke="#AF6900" stroke-width="0.543652"/>
<path d="M44.2205 61.1302C44.0592 61.1294 43.9021 61.0789 43.7705 60.9856C43.6389 60.8923 43.5392 60.7607 43.4851 60.6087C41.0871 53.8693 39.3978 44.1792 39.3845 44.0811C39.349 43.8772 39.3959 43.6676 39.5151 43.4983C39.6342 43.329 39.8157 43.214 40.0197 43.1785C40.2236 43.1431 40.4332 43.1901 40.6025 43.3092C40.7718 43.4283 40.8867 43.6098 40.9222 43.8137C40.9222 43.9118 42.6026 53.4726 44.9561 60.0872C44.9961 60.205 45.0077 60.3306 44.99 60.4538C44.9723 60.577 44.9256 60.6942 44.8539 60.7959C44.7821 60.8977 44.6874 60.981 44.5774 61.039C44.4673 61.0971 44.345 61.1284 44.2205 61.1302Z" fill="#AF6900" stroke="#AF6900" stroke-width="0.543652"/>
<path d="M45.6425 69.4563C44.0524 69.4584 42.4737 69.187 40.9756 68.654C40.8005 68.5956 40.6518 68.4769 40.5559 68.3191C40.46 68.1612 40.4232 67.9745 40.4521 67.7921C40.481 67.6097 40.5736 67.4435 40.7136 67.323C40.8535 67.2025 41.0317 67.1356 41.2163 67.1341C41.3059 67.1333 41.395 67.1484 41.4794 67.1787C43.1074 67.7675 44.8426 68.0013 46.5684 67.8645C48.2943 67.7276 49.9709 67.2233 51.4859 66.3853C53.924 64.9902 55.7382 62.8462 57.6592 60.5908C58.9096 59.0367 60.2743 57.5781 61.742 56.2272C64.9676 53.4128 69.0039 51.6959 73.2686 51.3242C75.0907 51.1739 76.9249 51.2744 78.7198 51.6228C78.8205 51.6422 78.9163 51.6811 79.0019 51.7375C79.0876 51.7939 79.1612 51.8665 79.2187 51.9514C79.2762 52.0362 79.3165 52.1316 79.3372 52.232C79.3579 52.3324 79.3586 52.4359 79.3393 52.5366C79.32 52.6373 79.2811 52.7331 79.2247 52.8188C79.1683 52.9044 79.0956 52.9781 79.0108 53.0356C78.9259 53.0931 78.8305 53.1334 78.7301 53.1541C78.6297 53.1747 78.5262 53.1754 78.4255 53.1561C76.7718 52.8329 75.0814 52.7399 73.4022 52.8798C69.4692 53.2215 65.7466 54.8042 62.7717 57.3995C61.3652 58.7017 60.0557 60.105 58.8537 61.5982C56.9282 63.8714 54.9403 66.2248 52.2659 67.7581C50.2426 68.8887 47.9602 69.4739 45.6425 69.4563Z" fill="#AF6900" stroke="#AF6900" stroke-width="0.543652"/>
</svg>
