<svg width="95" height="72" viewBox="0 0 95 72" fill="none" xmlns="http://www.w3.org/2000/svg">
<path d="M47.9857 70.7903C47.8296 70.7896 47.6774 70.7414 47.5493 70.6522C47.4211 70.5629 47.3233 70.4367 47.2686 70.2904C46.9208 69.3124 46.6165 68.3214 46.3644 67.3129C43.4564 59.2845 37.0842 52.4905 28.4994 48.3785C28.4031 48.3395 28.3158 48.2812 28.2429 48.2072C28.17 48.1332 28.113 48.0451 28.0755 47.9482C28.038 47.8513 28.0208 47.7478 28.0248 47.644C28.0288 47.5402 28.054 47.4383 28.0989 47.3446C28.1438 47.251 28.2075 47.1675 28.2859 47.0993C28.3643 47.0312 28.4558 46.9798 28.5548 46.9484C28.6538 46.917 28.7582 46.9062 28.8616 46.9166C28.9649 46.9271 29.065 46.9586 29.1557 47.0093C36.267 50.4128 41.9264 55.5941 45.4777 61.7882C44.9951 55.7002 46.2573 49.6007 49.1165 44.2042C51.9756 38.8077 56.3133 34.3376 61.6215 31.3176C61.7072 31.251 61.8062 31.2034 61.9117 31.1782C62.0173 31.153 62.1271 31.1508 62.2336 31.1715C62.3402 31.1922 62.4411 31.2356 62.5295 31.2985C62.6179 31.3615 62.6918 31.4426 62.7463 31.5365C62.8007 31.6304 62.8346 31.7349 62.8453 31.8429C62.856 31.9509 62.8435 32.06 62.8086 32.1628C62.7737 32.2656 62.7172 32.3597 62.6429 32.4388C62.5686 32.518 62.4782 32.5803 62.3778 32.6216C56.542 35.9469 51.9578 41.0946 49.3284 47.2753C46.6989 53.456 46.1693 60.3285 47.8206 66.8391C48.1683 67.8171 48.4727 68.8125 48.7248 69.821C48.771 70.0098 48.7431 70.2092 48.6469 70.3782C48.5507 70.5471 48.3934 70.6728 48.2074 70.7295C48.1377 70.7626 48.0626 70.7832 47.9857 70.7903Z" fill="#AF6900" stroke="#AF6900" stroke-width="0.5"/>
<path d="M36.932 52.86C36.586 52.8607 36.2404 52.8374 35.8975 52.7905C35.7931 52.7844 35.691 52.7568 35.5976 52.7095C35.5043 52.6621 35.4219 52.5961 35.3553 52.5154C35.2887 52.4347 35.2393 52.3411 35.2105 52.2406C35.1817 52.14 35.174 52.0346 35.1878 51.9308C35.2016 51.8271 35.2365 51.7273 35.2906 51.6378C35.3447 51.5482 35.4168 51.4708 35.5021 51.4103C35.5875 51.3498 35.6844 51.3077 35.7869 51.2864C35.8893 51.2651 35.9951 51.2651 36.0975 51.2865C37.3457 51.4331 38.6105 51.2446 39.7617 50.7404C40.913 50.2362 41.9093 49.4345 42.648 48.4176C42.7695 48.2693 42.9425 48.1723 43.1325 48.1461C43.3224 48.1198 43.5153 48.1663 43.6724 48.2762C43.8296 48.3861 43.9394 48.5513 43.98 48.7387C44.0205 48.9261 43.9888 49.122 43.8912 49.287C43.0927 50.3866 42.0467 51.283 40.8378 51.9037C39.6289 52.5244 38.2909 52.852 36.932 52.86Z" fill="#AF6900" stroke="#AF6900" stroke-width="0.5"/>
<path d="M21.701 68.321C20.744 68.3208 19.7892 68.2291 18.8496 68.0472C18.6844 68.0148 18.5346 67.9285 18.4236 67.8019C18.3127 67.6752 18.247 67.5154 18.2367 67.3474C18.0611 64.7853 18.5476 62.2211 19.6494 59.9014C16.3589 61.1793 13.2205 61.3575 10.2952 60.4273C8.32284 59.7977 6.49414 58.7852 4.91363 57.4479C3.33312 56.1105 2.03187 54.4746 1.08445 52.6337C1.01712 52.5034 0.989135 52.3565 1.0038 52.2106C1.01846 52.0648 1.07512 51.9263 1.16701 51.8121C3.25779 49.2041 5.20077 47.1263 7.88705 45.3876C9.6821 44.1909 11.7626 43.492 13.916 43.362C11.3958 41.3585 9.38257 38.7899 8.03923 35.8639C6.21189 31.8364 5.78496 27.3132 6.82647 23.015C6.86154 22.8734 6.93614 22.7446 7.04158 22.6438C7.14702 22.543 7.279 22.4742 7.42203 22.4455C11.2167 21.7109 15.6808 22.4673 19.7016 24.5233C23.4277 26.4379 26.4077 29.5419 28.169 33.3428C28.2537 33.5261 28.2622 33.7356 28.1925 33.9251C28.1228 34.1146 27.9807 34.2687 27.7974 34.3534C27.6141 34.4382 27.4046 34.4466 27.2151 34.3769C27.0255 34.3072 26.8714 34.1651 26.7867 33.9818C25.1699 30.4889 22.4331 27.6358 19.0104 25.8751C15.4635 24.0625 11.5558 23.3366 8.19576 23.8582C7.37897 27.6836 7.80846 31.6701 9.42146 35.2337C11.1358 38.9812 14.0388 42.0584 17.6803 43.988C17.8528 44.0781 17.9843 44.231 18.0476 44.4151C18.1108 44.5993 18.1011 44.8007 18.0203 44.9778C17.9395 45.155 17.7938 45.2944 17.6133 45.3674C17.4328 45.4404 17.2312 45.4414 17.05 45.3702C14.6071 44.3879 11.4993 44.8747 8.7304 46.6742C6.34839 48.2173 4.56616 50.0821 2.68402 52.3815C4.44761 55.5261 7.33615 57.8866 10.769 58.9886C13.9465 59.9927 17.4499 59.5102 21.2012 57.5498C21.3524 57.4708 21.5258 57.445 21.6935 57.4765C21.8611 57.5079 22.0134 57.5948 22.1257 57.7232C22.238 57.8516 22.304 58.014 22.3129 58.1844C22.3218 58.3548 22.2732 58.5232 22.1748 58.6626C20.5331 61.0022 19.6873 63.8078 19.7624 66.6649C21.7433 66.9597 23.7648 66.8161 25.6842 66.2444C27.6036 65.6727 29.3742 64.6868 30.871 63.3562C32.3678 62.0256 33.5543 60.3828 34.347 58.5436C35.1396 56.7044 35.5191 54.7137 35.4585 52.7119C35.4522 52.5101 35.5262 52.3141 35.6644 52.167C35.8025 52.0198 35.9934 51.9337 36.1952 51.9273C36.3969 51.921 36.593 51.995 36.7401 52.1332C36.8873 52.2714 36.9735 52.4623 36.9799 52.6641C37.0381 54.7008 36.6866 56.7284 35.9462 58.6267C35.2059 60.525 34.0917 62.2553 32.6699 63.7148C31.2481 65.1743 29.5476 66.3332 27.6694 67.123C25.7911 67.9128 23.7734 68.3172 21.7358 68.3123L21.701 68.321Z" fill="#AF6900" stroke="#AF6900" stroke-width="0.5"/>
<path d="M68.4981 64.3482C68.426 64.3488 68.3542 64.3385 68.2852 64.3178C63.8167 63.0138 58.1703 60.9664 54.1322 56.6936C51.2534 53.6752 49.4703 49.7784 49.0681 45.6268C45.7733 45.9925 42.4563 45.166 39.7183 43.297C36.8147 41.367 34.3849 38.3504 32.681 34.6035C31.0466 30.9827 30.2642 27.1705 29.7122 23.9192C29.6799 23.726 29.7233 23.5279 29.8334 23.366C29.9435 23.204 30.1118 23.0908 30.3033 23.0498C33.546 22.3413 37.4059 22.7369 40.7746 24.0365C39.0012 20.7113 38.636 16.3211 39.94 12.2612C41.2918 8.0623 44.2607 4.15891 48.7682 0.664128C48.8849 0.573037 49.0255 0.517936 49.173 0.505583C49.3205 0.49323 49.4684 0.5242 49.5985 0.594619C55.8057 3.98942 60.3784 10.5921 61.6129 17.7338C67.6244 10.44 77.2394 6.20187 87.163 6.58003C87.3594 6.5879 87.5452 6.67153 87.6813 6.81334C87.8175 6.95515 87.8934 7.14413 87.8932 7.34071C87.8932 13.9217 87.1152 17.8207 84.994 22.2457C83.9899 24.3321 80.669 29.696 76.4179 32.4996C78.7612 32.7162 81.0403 33.3849 83.1292 34.4687C87.1847 36.5465 90.7273 40.1195 93.6614 45.1008C93.7455 45.2458 93.7799 45.4142 93.7595 45.5805C93.7391 45.7469 93.665 45.902 93.5484 46.0223C90.4578 49.152 86.6501 52.5816 81.8122 54.2811C77.3828 55.8242 72.7971 55.6591 69.1502 53.8943C70.0372 57.1421 70.0656 60.5645 69.2327 63.8266C69.2064 63.9236 69.161 64.0144 69.099 64.0935C69.037 64.1726 68.9598 64.2385 68.8719 64.2873C68.7544 64.3386 68.6259 64.3596 68.4981 64.3482ZM49.7637 43.8838C49.9654 43.8838 50.1589 43.9639 50.3016 44.1066C50.4443 44.2492 50.5243 44.4427 50.5243 44.6444C50.5265 44.6647 50.5265 44.6851 50.5243 44.7053C50.7291 48.8004 52.4 52.6852 55.2319 55.6504C58.7962 59.4233 63.795 61.3707 67.9418 62.6313C68.6316 59.2327 68.3406 55.708 67.1028 52.4686C67.0442 52.3164 67.0361 52.1493 67.0796 51.9921C67.1232 51.835 67.2161 51.696 67.3447 51.5956C67.4733 51.4953 67.6308 51.4389 67.7938 51.4349C67.9569 51.4309 68.1169 51.4793 68.2504 51.5731C71.6539 53.9551 76.6569 54.429 81.2906 52.8076C85.6373 51.2993 89.0147 48.3653 92.027 45.3486C89.445 41.1497 82.9553 32.7735 72.8665 34.0471C72.6731 34.0718 72.4776 34.0213 72.3203 33.906C72.1631 33.7907 72.0561 33.6194 72.0215 33.4275C71.9869 33.2355 72.0273 33.0377 72.1344 32.8747C72.2415 32.7118 72.4072 32.5961 72.5971 32.5518C77.9479 31.2912 82.6381 23.5584 83.5987 21.5589C85.5591 17.4817 86.2762 14.0043 86.3458 8.05358H85.9111C76.27 8.05358 67.0767 12.5872 61.6998 20.0636C61.6083 20.1883 61.4816 20.2826 61.3359 20.3346C61.1902 20.3865 61.0324 20.3935 60.8827 20.3549C60.7332 20.3139 60.5998 20.2282 60.5004 20.1094C60.401 19.9905 60.3402 19.8441 60.3263 19.6898C59.6742 12.5047 55.3622 5.67594 49.2855 2.15073C45.2474 5.37167 42.5872 8.91861 41.3744 12.7003C40.1182 16.6123 40.3443 22.0675 43.6869 25.484C43.8141 25.6166 43.8891 25.7907 43.8979 25.9742C43.9067 26.1577 43.8487 26.3382 43.7348 26.4824C43.6209 26.6265 43.4586 26.7245 43.278 26.7584C43.0975 26.7922 42.9108 26.7595 42.7524 26.6663C39.3096 24.6385 35.2833 23.8314 31.3248 24.3756C31.8508 27.3618 32.6071 30.7523 34.0502 33.9384C35.6368 37.4506 37.8797 40.2412 40.5443 42.0103C43.0837 43.756 46.1877 44.4808 49.2377 44.0402C49.388 43.9256 49.5751 43.8699 49.7637 43.8838Z" fill="#AF6900" stroke="#AF6900" stroke-width="0.5"/>
</svg>
