<svg width="82" height="91" viewBox="0 0 82 91" fill="none" xmlns="http://www.w3.org/2000/svg">
<path d="M24.6052 89.8482H1.73152C1.53751 89.8482 1.3514 89.7712 1.21421 89.634C1.07702 89.4968 1 89.3107 1 89.1167V49.8904C0.999983 49.7926 1.01985 49.6959 1.05848 49.6061L8.54924 31.7862V1.51375C8.54924 1.31974 8.62636 1.13368 8.76355 0.996489C8.90074 0.859302 9.08675 0.782227 9.28076 0.782227H17.0517C17.2457 0.782227 17.4318 0.859302 17.569 0.996489C17.7062 1.13368 17.7832 1.31974 17.7832 1.51375V31.7862L25.2739 49.6061C25.3126 49.6959 25.3325 49.7926 25.3325 49.8904V89.1167C25.3325 89.31 25.256 89.4954 25.1197 89.6325C24.9835 89.7696 24.7985 89.8471 24.6052 89.8482ZM2.45049 88.3852H23.8611V50.045L16.3703 32.2252C16.3322 32.1352 16.3122 32.0386 16.3118 31.9409V2.26196H9.99973V31.9409C9.99929 32.0386 9.97944 32.1352 9.94125 32.2252L2.46305 50.045L2.45049 88.3852Z" fill="#AF6900" stroke="#AF6900" stroke-width="0.509851"/>
<path d="M6.34206 82.3319C6.14805 82.3319 5.96204 82.2548 5.82485 82.1176C5.68766 81.9804 5.61053 81.7944 5.61053 81.6004V61.0843C5.61053 60.8903 5.68766 60.7042 5.82485 60.567C5.96204 60.4299 6.14805 60.3528 6.34206 60.3528C6.53607 60.3528 6.72218 60.4299 6.85937 60.567C6.99656 60.7042 7.07358 60.8903 7.07358 61.0843V81.6004C7.07358 81.7944 6.99656 81.9804 6.85937 82.1176C6.72218 82.2548 6.53607 82.3319 6.34206 82.3319Z" fill="#AF6900" stroke="#AF6900" stroke-width="0.509851"/>
<path d="M48.9084 85.8853C41.4612 85.8806 34.2466 83.2905 28.4968 78.5575C28.4227 78.4963 28.3614 78.4212 28.3164 78.3362C28.2713 78.2513 28.2434 78.1584 28.2343 78.0627C28.2252 77.967 28.235 77.8705 28.2632 77.7786C28.2914 77.6867 28.3374 77.6013 28.3986 77.5272C28.4598 77.4531 28.5351 77.3917 28.62 77.3467C28.7049 77.3016 28.7978 77.2738 28.8935 77.2646C28.9892 77.2555 29.0857 77.2653 29.1776 77.2935C29.2695 77.3217 29.355 77.3677 29.4291 77.4289C34.1841 81.346 40.0099 83.7379 46.1456 84.292C52.2813 84.8462 58.4415 83.5369 63.8214 80.5352C69.2013 77.5334 73.5507 72.9788 76.3015 67.4664C79.0524 61.954 80.0767 55.7401 79.2406 49.6365C78.4045 43.5328 75.7469 37.8232 71.615 33.2536C67.4831 28.684 62.0691 25.4669 56.0802 24.0225C50.0912 22.5781 43.8058 22.9736 38.0452 25.1573C32.2845 27.3411 27.3165 31.2115 23.7901 36.263C23.6792 36.4215 23.5099 36.5295 23.3194 36.5633C23.1289 36.597 22.9328 36.5536 22.7742 36.4427C22.6157 36.3319 22.5077 36.1626 22.474 35.9721C22.4403 35.7816 22.4837 35.5855 22.5945 35.427C25.7519 30.9034 30.0221 27.2702 34.9929 24.878C39.9638 22.4858 45.4674 21.4153 50.9725 21.77C56.4776 22.1247 61.7982 23.8925 66.421 26.9029C71.0437 29.9132 74.8124 34.0644 77.3632 38.9557C79.914 43.847 81.1609 49.3134 80.9834 54.827C80.8059 60.3407 79.21 65.7155 76.3499 70.4326C73.4898 75.1498 69.4619 79.05 64.6551 81.7567C59.8484 84.4635 54.4249 85.8854 48.9084 85.8853Z" fill="#AF6900" stroke="#AF6900" stroke-width="0.509851"/>
<path d="M50.5679 56.7957H33.187C32.993 56.7957 32.8068 56.7186 32.6697 56.5815C32.5325 56.4443 32.4554 56.2582 32.4554 56.0642C32.4554 55.8702 32.5325 55.6841 32.6697 55.5469C32.8068 55.4097 32.993 55.3327 33.187 55.3327H49.8364V34.9044C49.8364 34.7104 49.9135 34.5243 50.0507 34.3871C50.1879 34.2499 50.3739 34.1729 50.5679 34.1729C50.7619 34.1729 50.948 34.2499 51.0852 34.3871C51.2224 34.5243 51.2994 34.7104 51.2994 34.9044V56.0642C51.2994 56.2582 51.2224 56.4443 51.0852 56.5815C50.948 56.7186 50.7619 56.7957 50.5679 56.7957Z" fill="#AF6900" stroke="#AF6900" stroke-width="0.509851"/>
</svg>
