<svg width="285" height="287" viewBox="0 0 285 287" fill="none" xmlns="http://www.w3.org/2000/svg">
<g opacity="0.5">
<path d="M83.1682 163.145C89.4783 167.992 100.258 172.227 117.39 167.977C119.772 167.386 122.063 167.224 124.267 167.409C115.975 169.05 105.106 173.343 96.9041 184.223C96.7026 184.495 96.7292 184.877 96.9598 185.117C97.8068 185.98 98.6765 186.816 99.5593 187.63C99.8579 187.894 100.328 187.838 100.565 187.517C112.3 171.607 130.489 171.182 135.033 171.347C144.827 177.7 152.883 190.588 160.298 202.456L161.424 204.273C161.616 204.578 162.025 204.68 162.331 204.488L165.375 202.579C165.68 202.388 165.773 201.984 165.582 201.679L164.462 199.872C152.131 180.145 138.166 157.79 116.21 163.233C116.175 163.241 116.156 163.253 116.131 163.256C109.533 156.359 106.509 149.013 103.607 141.884C99.7487 132.445 96.0894 123.493 84.668 118.213C84.3133 118.05 83.8898 118.223 83.7421 118.581C83.2979 119.696 82.8848 120.818 82.5027 121.948C82.3872 122.272 82.5582 122.63 82.8603 122.773C92.3271 127.246 95.344 134.623 99.0704 143.746C101.713 150.228 104.675 157.453 110.514 164.348C93.8433 166.769 85.5356 159.775 82.0822 155.434C81.6388 154.876 80.7297 155.313 80.8975 156.005C81.4379 158.308 82.1227 160.588 82.9364 162.839C82.9926 162.95 83.0643 163.065 83.1682 163.145Z" fill="#9E845C"/>
<path d="M200.334 125.113C200.721 125.03 200.972 124.646 200.864 124.262C200.526 123.107 200.152 121.96 199.75 120.831C199.634 120.519 199.296 120.319 198.96 120.398C180.984 124.194 170.817 136.519 166.167 143.989C165.07 138.317 165.388 132.633 168.344 127.593C171.565 122.107 175.6 118.089 179.15 114.549C183.301 110.418 187.305 106.434 188.122 101.314C188.153 101.108 188.093 100.907 187.957 100.753C186.792 99.4257 185.582 98.153 184.317 96.9413C183.827 96.4783 183.052 96.938 183.186 97.5974C184.211 102.306 181.299 105.486 175.687 111.104C171.925 114.857 167.654 119.115 164.121 125.142C162.66 127.625 161.724 130.203 161.191 132.809C156.38 131.138 150.84 127.667 147.504 122.071C144.588 117.167 143.979 111.574 145.703 105.46C149.023 93.645 146.597 85.7257 143.026 80.0108C142.907 79.8202 142.698 79.699 142.454 79.6923C141.024 79.6595 139.599 79.6768 138.169 79.7502C137.641 79.7763 137.345 80.3865 137.661 80.826C141.532 86.087 144.158 92.819 140.973 104.151C138.907 111.501 139.709 118.567 143.283 124.585C147.522 131.727 154.699 135.963 160.649 137.796C160.422 151.004 168.946 164.555 174.113 172.774L184.728 189.7C184.919 190.005 185.322 190.097 185.628 189.906L188.672 187.997C188.977 187.805 189.07 187.402 188.879 187.097L178.258 170.161C175.159 165.239 170.751 158.231 168.025 150.725C170.2 146.307 179.807 129.314 200.334 125.113Z" fill="#9E845C"/>
<path d="M134.662 131.425C134.498 122.83 134.294 112.136 128.831 101.686C123.288 91.0868 123.26 85.5936 123.797 83.1852C123.911 82.6888 123.439 82.2543 122.948 82.4033C121.656 82.802 120.378 83.2449 119.105 83.7378C118.861 83.8373 118.695 84.0607 118.675 84.3256C118.443 88.3223 119.568 94.548 124.486 103.959C129.422 113.399 129.594 123.024 129.764 131.522C129.852 136.008 129.928 140.117 130.681 143.734C121.599 139.471 115.021 135.681 111.891 120.13C108.796 104.742 105.566 97.0477 103.548 93.4267C103.346 93.0621 102.867 92.9773 102.538 93.2368C101.576 94.013 100.635 94.8023 99.727 95.6237C99.4992 95.8329 99.4399 96.1623 99.5821 96.4316C101.297 99.7383 104.244 106.919 107.086 121.098C110.873 139.943 120.237 144.295 130.156 148.897C138.614 152.822 148.2 157.274 157.212 171.646L173.092 196.969C173.283 197.274 173.687 197.367 173.992 197.175L177.037 195.266C177.342 195.075 177.435 194.671 177.243 194.366L161.364 169.043C153.265 156.129 144.516 150.488 136.852 146.663C134.888 143.022 134.789 137.626 134.662 131.425Z" fill="#9E845C"/>
<path d="M158.461 110.539L157.693 111.286C153.804 115.093 153.726 121.329 157.536 125.221L158.283 125.987C158.529 126.231 158.919 126.239 159.179 125.996L159.947 125.249C163.836 121.443 163.914 115.206 160.104 111.315L159.357 110.548C159.105 110.294 158.705 110.293 158.461 110.539Z" fill="#9E845C"/>
<path d="M186.336 147.421L186.832 146.473C187 146.169 186.876 145.781 186.572 145.614L185.624 145.119C180.81 142.574 174.85 144.413 172.298 149.227L171.802 150.175C171.634 150.48 171.757 150.867 172.062 151.035L173.01 151.529C177.817 154.065 183.784 152.235 186.336 147.421Z" fill="#9E845C"/>
<path d="M158.339 151.965L159.389 151.731C159.732 151.662 159.941 151.318 159.873 150.976L159.646 149.937C158.508 144.622 153.255 141.25 147.937 142.394L146.886 142.628C146.544 142.697 146.334 143.041 146.402 143.383L146.629 144.423C147.777 149.731 153.02 153.109 158.339 151.965Z" fill="#9E845C"/>
<path d="M143.056 130.159C138.078 132.377 135.841 138.202 138.048 143.165L138.486 144.138C138.633 144.458 139.001 144.599 139.321 144.452L140.298 144.038C145.275 141.819 147.519 136.004 145.305 131.032L144.867 130.058C144.72 129.739 144.352 129.598 144.033 129.745L143.056 130.159Z" fill="#9E845C"/>
<path d="M121.334 111.274C116.348 113.458 114.08 119.276 116.259 124.256L116.687 125.236C116.825 125.561 117.202 125.696 117.518 125.565L118.499 125.136C123.485 122.952 125.753 117.134 123.574 112.153L123.146 111.174C123.008 110.848 122.631 110.713 122.315 110.845L121.334 111.274Z" fill="#9E845C"/>
<path d="M115.1 144.436L114.447 145.283C111.129 149.595 111.921 155.778 116.222 159.096L117.069 159.746C117.347 159.957 117.742 159.908 117.953 159.63L118.605 158.783C121.93 154.48 121.132 148.288 116.831 144.97L115.984 144.32C115.721 144.113 115.326 144.161 115.1 144.436Z" fill="#9E845C"/>
<path d="M95.9606 144.66L96.9354 144.221C97.2551 144.073 97.3968 143.706 97.2497 143.386L96.812 142.413C94.5981 137.441 88.7822 135.205 83.8046 137.424L82.8299 137.862C82.5101 138.01 82.3684 138.377 82.5155 138.697L82.9533 139.671C85.1671 144.643 90.9926 146.872 95.9606 144.66Z" fill="#9E845C"/>
<path d="M90.8745 149.376L90.6355 150.416C89.4158 155.722 92.7268 161.002 98.0346 162.215L99.0744 162.452C99.4158 162.53 99.7498 162.321 99.8283 161.979L100.067 160.94C101.287 155.634 97.976 150.354 92.6682 149.141L91.6284 148.903C91.287 148.825 90.9529 149.035 90.8745 149.376Z" fill="#9E845C"/>
<path d="M102.597 120.979L103.647 120.745C103.983 120.667 104.199 120.332 104.131 119.99L103.898 118.941C102.734 113.629 97.4785 110.272 92.1527 111.448L91.1025 111.681C90.766 111.759 90.5503 112.094 90.6186 112.436L90.8511 113.485C92.0305 118.801 97.2805 122.148 102.597 120.979Z" fill="#9E845C"/>
<path d="M118.645 99.8408L119.661 99.5094C119.995 99.4061 120.177 99.0395 120.065 98.7117L119.734 97.6972C118.057 92.5212 112.508 89.6937 107.331 91.3602L106.315 91.6916C105.981 91.7949 105.799 92.1615 105.912 92.4893L106.242 93.5037C107.909 98.6858 113.464 101.523 118.645 99.8408Z" fill="#9E845C"/>
<path d="M180.187 120.697L180.113 121.766C180.091 122.112 180.357 122.409 180.703 122.431L181.773 122.504C187.199 122.846 191.887 118.724 192.245 113.295L192.319 112.226C192.342 111.88 192.075 111.582 191.729 111.56L190.66 111.487C185.227 111.136 180.545 115.267 180.187 120.697Z" fill="#9E845C"/>
<path d="M133.486 174.202L132.417 174.236C126.972 174.437 122.727 179.011 122.916 184.443L122.948 185.511C122.966 185.859 123.255 186.129 123.608 186.12L124.678 186.086C130.123 185.885 134.368 181.311 134.179 175.879L134.147 174.81C134.129 174.463 133.834 174.184 133.486 174.202Z" fill="#9E845C"/>
<path d="M187.116 133.441L186.32 134.166C186.064 134.393 186.043 134.805 186.279 135.055L187.003 135.849C190.669 139.871 196.9 140.159 200.919 136.497L201.714 135.773C201.971 135.546 201.992 135.134 201.755 134.884L201.031 134.09C197.371 130.077 191.135 129.779 187.116 133.441Z" fill="#9E845C"/>
<path d="M115.434 178.618L114.435 179.019C109.379 181.047 106.931 186.792 108.959 191.827L109.359 192.825C109.49 193.141 109.86 193.307 110.176 193.175L111.175 192.775C116.232 190.746 118.679 185.002 116.651 179.966L116.252 178.968C116.13 178.646 115.76 178.48 115.434 178.618Z" fill="#9E845C"/>
<path d="M161.36 101.232C161.454 100.894 161.248 100.545 160.916 100.461L159.878 100.183C154.622 98.7779 149.21 101.893 147.798 107.147L147.518 108.186C147.424 108.523 147.63 108.872 147.962 108.956L149.001 109.235C154.256 110.64 159.668 107.524 161.08 102.27L161.36 101.232Z" fill="#9E845C"/>
<path d="M159.474 84.5283L159.242 83.4791C159.164 83.1428 158.83 82.9276 158.487 82.9963L157.437 83.2299C152.121 84.3993 148.756 89.6563 149.926 94.9777L150.158 96.027C150.236 96.3632 150.571 96.5785 150.913 96.5097L151.963 96.2761C157.283 95.0912 160.648 89.8343 159.474 84.5283Z" fill="#9E845C"/>
<path d="M131.54 98.9254C131.725 99.2209 132.113 99.3096 132.409 99.124L133.316 98.5555C137.925 95.6651 139.323 89.5831 136.436 84.9798L135.869 84.0744C135.683 83.7789 135.295 83.6903 135 83.8758L134.093 84.4443C129.484 87.3348 128.086 93.4167 130.972 98.02L131.54 98.9254Z" fill="#9E845C"/>
<path d="M171.616 108.703C171.84 108.975 172.242 109.002 172.514 108.778L173.327 108.082C177.476 104.564 177.991 98.3453 174.476 94.2026L173.78 93.3905C173.557 93.119 173.155 93.0924 172.883 93.316L172.069 94.012C167.92 97.5301 167.405 103.749 170.911 107.897L171.616 108.703Z" fill="#9E845C"/>
<path d="M52.5314 112.233L43.1525 103.362L42.4001 105.428L49.6406 112.267L39.7011 112.87L38.8903 115.118L51.7861 114.268L52.5314 112.233Z" fill="#9E845C"/>
<path d="M47.23 95.3064L46.2139 97.2529L56.715 102.719L57.731 100.772L47.23 95.3064Z" fill="#9E845C"/>
<path d="M62.5384 92.7193L56.0363 88.0329L66.3542 87.4185L67.4175 85.955L57.8113 79.0324L56.5394 80.7993L63.0415 85.4858L52.714 86.1061L51.6507 87.5696L61.257 94.4923L62.5384 92.7193Z" fill="#9E845C"/>
<path d="M80.1436 73.194L77.9963 70.4906L80.0871 68.821C80.2469 68.6942 80.3591 68.5973 80.433 68.5244L84.4851 69.728L86.3362 68.2485L81.785 66.9064C82.2283 66.1504 82.4186 65.3937 82.3535 64.6113C82.2883 63.8289 81.9809 63.1054 81.4324 62.4004C80.8863 61.7204 80.2652 61.26 79.5596 61.0253C78.848 60.7811 78.0924 60.7636 77.2834 60.9788C76.4743 61.194 75.675 61.6156 74.8664 62.2554L71.0461 65.3017L78.4178 74.5551L80.1436 73.194ZM75.9444 63.7837C76.6958 63.1797 77.3914 62.8896 78.0347 62.8978C78.6781 62.906 79.2381 63.2054 79.6994 63.7925C80.1606 64.3797 80.3367 64.9996 80.2095 65.6238C80.0728 66.2539 79.6366 66.8727 78.8887 67.4612L76.8778 69.0675L73.9371 65.3744L75.9444 63.7837Z" fill="#9E845C"/>
<path d="M93.1828 63.2645C94.2857 63.2634 95.3716 62.9808 96.4345 62.4072C97.4975 61.8336 98.3371 61.0946 98.9414 60.1713C99.5457 59.2479 99.8801 58.2547 99.9233 57.1786C99.9665 56.1025 99.7244 55.0593 99.1757 54.0357C98.6269 53.0122 97.8933 52.224 96.9654 51.6772C96.047 51.1244 95.0239 50.8498 93.9306 50.8449C92.8277 50.846 91.7418 51.1286 90.6788 51.7022C89.6159 52.2759 88.7763 53.0148 88.172 53.9382C87.5677 54.8616 87.2392 55.8643 87.196 56.9404C87.1433 58.0224 87.4009 59.0693 87.9437 60.0833C88.4865 61.0973 89.2201 61.8855 90.154 62.4418C91.0604 62.9755 92.074 63.2561 93.1828 63.2645ZM89.8894 59.0092C89.5188 58.3121 89.3391 57.6015 89.3599 56.8714C89.3807 56.1413 89.5842 55.4693 89.9704 54.8554C90.3565 54.2414 90.9015 53.7536 91.5994 53.3823C92.2973 53.0111 93.0085 52.8306 93.7331 52.8411C94.4576 52.8515 95.1297 53.0541 95.7496 53.4488C96.3694 53.8435 96.8664 54.3817 97.237 55.0788C97.6077 55.7758 97.7874 56.4864 97.7666 57.2165C97.7458 57.9466 97.5423 58.6186 97.1561 59.2326C96.7544 59.843 96.2154 60.3404 95.5175 60.7116C94.8196 61.0829 94.1084 61.2633 93.3839 61.2529C92.6594 61.2425 91.9872 61.0399 91.3674 60.6451C90.7535 60.2599 90.2601 59.7063 89.8894 59.0092Z" fill="#9E845C"/>
<path d="M112.679 55.554C114.245 55.0629 115.315 54.2459 115.907 53.0911C116.5 51.9363 116.533 50.5477 116.027 48.9133L114.027 42.5451L111.96 43.1912L113.936 49.4808C114.635 51.6981 114.026 53.1022 112.116 53.7026C110.196 54.309 108.894 53.5054 108.195 51.288L106.219 44.9984L104.122 45.6625L106.122 52.0308C106.637 53.6592 107.464 54.7871 108.61 55.3836C109.767 55.9991 111.118 56.0547 112.679 55.554Z" fill="#9E845C"/>
<path d="M126.556 51.4986C127.582 51.9044 128.697 52.0285 129.891 51.8769C130.741 51.769 131.554 51.5382 132.329 51.1847C133.105 50.8312 133.758 50.3682 134.302 49.8147L133.73 45.1279L131.67 45.3839L132.118 49.0463C131.467 49.5344 130.687 49.8378 129.772 49.9471C128.956 50.0466 128.2 49.9635 127.514 49.6762C126.825 49.4045 126.263 48.9738 125.817 48.3902C125.371 47.8066 125.103 47.1249 125.013 46.3449C124.92 45.5399 125.001 44.7989 125.295 44.1231C125.58 43.4533 126.023 42.9096 126.629 42.4765C127.235 42.0435 127.949 41.7819 128.779 41.6859C130.049 41.527 131.177 41.842 132.189 42.6284L133.404 41.1097C132.773 40.5491 132.038 40.1606 131.191 39.9345C130.345 39.7084 129.434 39.6555 128.449 39.7816C127.239 39.9296 126.184 40.3255 125.279 40.9596C124.374 41.5937 123.704 42.4123 123.272 43.3997C122.841 44.3871 122.686 45.4539 122.837 46.6071C122.973 47.7568 123.379 48.7639 124.042 49.6095C124.705 50.4551 125.531 51.0927 126.556 51.4986Z" fill="#9E845C"/>
<path d="M150.236 49.5697L143.557 49.2437L143.718 45.982L149.437 46.2599L149.526 44.4513L143.807 44.1734L143.957 41.1049L150.397 41.4088L150.493 39.5691L141.857 39.1553L141.28 50.9769L150.15 51.4034L150.236 49.5697Z" fill="#9E845C"/>
<path d="M89.5701 220L81.0389 225.775L84.409 216.053L82.6628 214.731L74.1459 220.444L77.5233 210.797L75.5632 209.304L71.161 222.024L73.176 223.562L81.4698 218.002L78.2331 227.428L80.2421 228.957L91.3617 221.373L89.5701 220Z" fill="#9E845C"/>
<path d="M94.1567 225.843L89.6154 234.473L91.6381 235.534L96.1795 226.905L94.1567 225.843Z" fill="#9E845C"/>
<path d="M96.0904 222.404C95.7157 222.506 95.4438 222.73 95.2591 223.071C95.0744 223.413 95.0485 223.774 95.1789 224.131C95.2998 224.493 95.5543 224.772 95.9113 224.96C96.2898 225.16 96.6575 225.195 97.0262 225.084C97.3949 224.972 97.6704 224.733 97.8587 224.376C98.0338 224.04 98.0562 223.694 97.9222 223.353C97.7918 222.997 97.5433 222.728 97.1707 222.537C96.8292 222.352 96.4651 222.302 96.0904 222.404Z" fill="#9E845C"/>
<path d="M104.962 231.102C104.346 231.116 103.779 231.272 103.271 231.565L103.714 230.384L101.683 229.626L98.2549 238.747L100.391 239.545L102.122 234.927C102.457 234.04 102.936 233.448 103.57 233.143C104.203 232.839 104.906 232.836 105.704 233.133C106.396 233.389 106.86 233.789 107.085 234.339C107.309 234.888 107.272 235.549 106.974 236.346L105.108 241.301L107.244 242.099L109.205 236.873C109.706 235.55 109.728 234.42 109.28 233.493C108.841 232.56 108.042 231.879 106.892 231.445C106.221 231.202 105.578 231.087 104.962 231.102Z" fill="#9E845C"/>
<path d="M120.814 235.37C119.87 235.178 118.988 235.214 118.143 235.478C117.308 235.736 116.604 236.204 116.02 236.862C115.435 237.521 115.057 238.316 114.868 239.245C114.675 240.189 114.725 241.074 115.007 241.906C115.29 242.738 115.788 243.448 116.506 244.02C117.214 244.598 118.103 244.997 119.15 245.204C119.97 245.367 120.741 245.388 121.447 245.263C122.154 245.139 122.774 244.856 123.305 244.43L122.386 242.816C121.564 243.371 120.634 243.542 119.581 243.326C118.761 243.163 118.115 242.812 117.639 242.287C117.164 241.762 116.941 241.131 116.953 240.407L124.445 241.923C124.525 241.647 124.584 241.424 124.62 241.269C124.819 240.294 124.783 239.387 124.531 238.562C124.28 237.737 123.819 237.044 123.172 236.48C122.526 235.916 121.743 235.557 120.814 235.37ZM122.674 240.032L117.251 238.932C117.504 238.255 117.916 237.745 118.497 237.42C119.078 237.096 119.727 237.007 120.444 237.155C121.171 237.297 121.73 237.637 122.14 238.163C122.541 238.695 122.717 239.315 122.674 240.032Z" fill="#9E845C"/>
<path d="M134.41 237.121C133.097 237.041 132.035 237.256 131.24 237.768C130.438 238.271 130.011 238.99 129.954 239.916C129.915 240.617 130.065 241.174 130.409 241.595C130.753 242.017 131.176 242.31 131.67 242.504C132.164 242.699 132.803 242.869 133.604 243.044C134.359 243.208 134.91 243.367 135.249 243.526C135.589 243.685 135.744 243.933 135.725 244.264C135.683 244.981 134.98 245.302 133.621 245.212C133.025 245.173 132.432 245.054 131.819 244.841C131.222 244.631 130.711 244.367 130.286 244.049L129.304 245.728C129.731 246.07 130.317 246.367 131.059 246.619C131.802 246.87 132.56 247.019 133.358 247.062C134.712 247.143 135.805 246.935 136.632 246.43C137.449 245.931 137.897 245.225 137.951 244.315C137.996 243.623 137.843 243.082 137.51 242.679C137.169 242.283 136.761 241.994 136.273 241.809C135.785 241.624 135.156 241.447 134.386 241.279C133.619 241.096 133.046 240.924 132.686 240.752C132.325 240.58 132.158 240.313 132.177 239.942C132.196 239.611 132.385 239.361 132.746 239.174C133.098 238.993 133.612 238.923 134.289 238.963C135.322 239.019 136.241 239.319 137.032 239.859L138.014 238.181C137.597 237.898 137.069 237.671 136.412 237.472C135.74 237.27 135.081 237.152 134.41 237.121Z" fill="#9E845C"/>
<path d="M149.034 236.821C148.357 236.887 147.75 237.042 147.218 237.296C146.692 237.559 146.244 237.906 145.907 238.344L145.475 233.436L143.198 233.642L144.379 247.123L146.646 246.923L146.215 242.015C146.129 241.072 146.31 240.322 146.753 239.778C147.197 239.234 147.84 238.924 148.667 238.844C149.409 238.776 149.992 238.942 150.44 239.339C150.872 239.731 151.129 240.353 151.211 241.205L151.673 246.479L153.95 246.273L153.456 240.714C153.331 239.305 152.873 238.278 152.066 237.628C151.26 236.978 150.258 236.717 149.034 236.821Z" fill="#9E845C"/>
<path d="M166.181 234.248C165.315 234.034 164.39 234.043 163.418 234.294C162.464 234.533 161.655 234.961 160.991 235.577C160.336 236.186 159.875 236.914 159.632 237.757C159.39 238.599 159.383 239.48 159.625 240.417C159.867 241.354 160.286 242.127 160.908 242.759C161.531 243.391 162.269 243.805 163.15 244.023C164.031 244.24 164.934 244.218 165.888 243.979C166.851 243.733 167.669 243.3 168.33 242.7C168.984 242.09 169.446 241.362 169.688 240.52C169.931 239.677 169.931 238.787 169.696 237.86C169.46 236.932 169.026 236.155 168.409 235.533C167.8 234.879 167.056 234.456 166.181 234.248ZM167.465 238.395C167.687 239.279 167.605 240.06 167.22 240.74C166.835 241.419 166.226 241.868 165.411 242.074C164.596 242.279 163.858 242.184 163.201 241.773C162.535 241.367 162.088 240.718 161.866 239.835C161.645 238.951 161.726 238.17 162.102 237.496C162.487 236.817 163.087 236.374 163.902 236.168C164.717 235.963 165.454 236.058 166.121 236.463C166.803 236.872 167.244 237.512 167.465 238.395Z" fill="#9E845C"/>
<path d="M181.079 228.597C180.231 228.517 179.371 228.672 178.501 229.045C177.884 229.312 177.371 229.66 176.953 230.095C176.534 230.53 176.248 231.028 176.091 231.605L175.584 230.436L173.588 231.302L178.892 243.472L180.98 242.561L179.092 238.235C180.146 238.729 181.268 238.716 182.477 238.184C183.34 237.801 184.043 237.268 184.565 236.595C185.087 235.922 185.387 235.15 185.475 234.272C185.559 233.409 185.412 232.518 185.007 231.617C184.611 230.71 184.072 229.999 183.375 229.481C182.705 228.985 181.932 228.686 181.079 228.597ZM182.902 232.565C183.266 233.4 183.316 234.178 183.042 234.908C182.768 235.637 182.253 236.173 181.475 236.501C180.975 236.722 180.467 236.802 179.971 236.754C179.47 236.696 179.013 236.518 178.591 236.185C178.175 235.862 177.835 235.424 177.594 234.871C177.354 234.318 177.251 233.772 177.306 233.246C177.362 232.72 177.535 232.253 177.83 231.855C178.135 231.452 178.535 231.135 179.041 230.924C179.813 230.586 180.56 230.568 181.276 230.863C181.993 231.157 182.539 231.731 182.902 232.565Z" fill="#9E845C"/>
<path d="M205.475 216.87L203.651 217.522C204.029 218.295 204.284 218.998 204.408 219.663L200.617 219.279C201.029 218.303 201.234 217.484 201.246 216.826C201.249 216.173 201.057 215.591 200.653 215.074C200.122 214.397 199.461 214.042 198.664 214.023C197.868 214.005 197.053 214.317 196.239 214.947C195.354 215.635 194.81 216.4 194.614 217.254C194.418 218.107 194.599 218.883 195.153 219.598C195.442 219.974 195.815 220.272 196.256 220.487C196.696 220.702 197.283 220.852 197.995 220.949C197.53 222.051 197.29 222.985 197.297 223.738C197.294 224.496 197.543 225.19 198.028 225.815C198.432 226.332 198.951 226.671 199.583 226.832C200.216 226.993 200.907 226.971 201.641 226.763C202.375 226.555 203.098 226.182 203.8 225.648C205.113 224.625 205.931 223.343 206.244 221.805L208.467 222.044L208.554 220.104L206.352 219.879C206.27 218.921 205.976 217.923 205.475 216.87ZM196.526 217.25C196.606 216.868 196.837 216.537 197.237 216.22C197.604 215.937 197.955 215.796 198.295 215.809C198.635 215.821 198.918 215.976 199.159 216.276C199.373 216.553 199.457 216.899 199.421 217.307C199.374 217.721 199.192 218.3 198.861 219.065C198.226 218.985 197.767 218.889 197.488 218.784C197.204 218.67 196.971 218.511 196.797 218.275C196.53 217.977 196.447 217.632 196.526 217.25ZM202.789 224.078C202.172 224.558 201.575 224.813 200.996 224.844C200.417 224.875 199.963 224.681 199.644 224.257C199.361 223.891 199.22 223.475 199.23 223.003C199.24 222.532 199.408 221.909 199.739 221.144L204.39 221.627C204.165 222.604 203.632 223.43 202.789 224.078Z" fill="#9E845C"/>
<path d="M221.191 204L210.784 201.377L209.22 203.42L222.747 206.756L224.177 204.903L217.429 192.722L215.986 194.597L221.191 204Z" fill="#9E845C"/>
<path d="M221.338 187.802C221.236 187.427 221.016 187.14 220.662 186.937C220.33 186.747 219.994 186.719 219.641 186.834C219.287 186.949 219.002 187.195 218.799 187.548C218.585 187.908 218.534 188.272 218.621 188.642C218.707 189.013 218.917 189.306 219.249 189.496C219.581 189.687 219.939 189.728 220.298 189.622C220.667 189.51 220.958 189.275 221.162 188.921C221.379 188.546 221.43 188.182 221.338 187.802Z" fill="#9E845C"/>
<path d="M223.117 188.744L221.969 190.721L230.401 195.606L231.549 193.629L223.117 188.744Z" fill="#9E845C"/>
<path d="M230.258 175.927C229.306 176.338 228.591 177.106 228.112 178.229C227.837 178.893 227.691 179.529 227.679 180.147C227.668 180.765 227.798 181.334 228.061 181.859L226.901 181.365L226.056 183.369L235.027 187.158L235.918 185.059L231.377 183.139C230.507 182.769 229.927 182.269 229.652 181.618C229.377 180.968 229.4 180.263 229.732 179.497C230.02 178.812 230.448 178.371 231 178.171C231.553 177.97 232.226 178.026 233.007 178.36L237.884 180.413L238.775 178.314L233.639 176.144C232.336 175.594 231.207 175.531 230.258 175.927Z" fill="#9E845C"/>
<path d="M240.144 163.195C240.66 164.039 240.796 164.977 240.532 166.019C240.327 166.837 239.963 167.464 239.419 167.912C238.875 168.359 238.232 168.563 237.514 168.522L239.351 161.103C239.069 161.014 238.855 160.949 238.709 160.907C237.735 160.668 236.839 160.659 236.001 160.893C235.163 161.126 234.455 161.544 233.862 162.168C233.27 162.791 232.863 163.564 232.643 164.485C232.414 165.413 232.413 166.303 232.642 167.155C232.871 168.008 233.304 168.719 233.939 169.33C234.569 169.931 235.347 170.345 236.275 170.574C237.203 170.802 238.103 170.795 238.944 170.547C239.785 170.298 240.514 169.828 241.121 169.142C241.728 168.456 242.165 167.584 242.419 166.548C242.624 165.729 242.667 164.972 242.578 164.257C242.489 163.543 242.226 162.911 241.83 162.363L240.144 163.195ZM234.584 166.88C234.289 166.282 234.226 165.631 234.396 164.927C234.569 164.207 234.932 163.661 235.477 163.28C236.022 162.898 236.645 162.746 237.355 162.819L236.03 168.191C235.361 167.907 234.873 167.469 234.584 166.88Z" fill="#9E845C"/>
<path d="M235.592 145.547L235.377 147.727L242.255 151.487L234.787 153.847L234.554 156.211L244.71 152.922L245.073 153.119C245.534 153.388 245.864 153.659 246.037 153.936C246.217 154.222 246.289 154.548 246.252 154.956C246.215 155.258 246.132 155.549 245.983 155.842C245.834 156.135 245.649 156.37 245.416 156.57L247 157.634C247.308 157.361 247.566 156.987 247.769 156.528C247.973 156.068 248.105 155.6 248.15 155.121C248.234 154.258 248.096 153.508 247.721 152.867C247.355 152.22 246.656 151.636 245.649 151.112L235.592 145.547Z" fill="#9E845C"/>
<path d="M236.209 134.192C235.562 134.983 235.265 136.099 235.327 137.534C235.363 138.334 235.501 139.084 235.737 139.799C235.973 140.515 236.303 141.104 236.72 141.6L238.341 140.623C238.014 140.271 237.77 139.839 237.572 139.313C237.381 138.795 237.268 138.255 237.246 137.711C237.21 136.911 237.368 136.294 237.711 135.866C238.055 135.438 238.57 135.221 239.249 135.18L239.39 135.172L239.506 137.689C239.569 139.083 239.884 140.094 240.435 140.718C240.991 141.351 241.711 141.63 242.584 141.601C243.138 141.572 243.642 141.402 244.067 141.082C244.492 140.763 244.829 140.326 245.048 139.763C245.273 139.211 245.373 138.564 245.338 137.829C245.308 137.104 245.157 136.481 244.922 135.979C244.686 135.476 244.325 135.091 243.895 134.83L245.084 134.775L244.983 132.62L239.271 132.883C237.888 132.967 236.866 133.395 236.209 134.192ZM242.036 135.066C242.531 135.22 242.92 135.521 243.204 135.953C243.489 136.386 243.643 136.887 243.667 137.456C243.698 138.034 243.591 138.499 243.365 138.84C243.14 139.18 242.813 139.359 242.4 139.379C241.534 139.418 241.083 138.784 241.018 137.471L240.913 135.12L242.036 135.066Z" fill="#9E845C"/>
<path d="M236.667 123.601C236.073 123.203 235.697 122.562 235.538 121.693C235.508 121.539 235.501 121.358 235.497 121.161L233.358 121.546C233.646 123.171 234.36 124.224 235.477 124.692L234.08 124.944L234.463 127.081L244.056 125.354L243.658 123.108L239.007 123.939C238.037 124.109 237.262 123.998 236.667 123.601Z" fill="#9E845C"/>
<path d="M238.678 104.587L225.796 108.787L226.506 110.958L231.264 109.408C230.963 109.903 230.791 110.435 230.747 111.021C230.705 111.591 230.779 112.196 230.974 112.804C231.267 113.695 231.718 114.435 232.345 115.011C232.962 115.593 233.708 115.976 234.559 116.146C235.41 116.316 236.299 116.25 237.236 115.941C238.172 115.633 238.942 115.163 239.523 114.52C240.119 113.881 240.493 113.142 240.654 112.297C240.816 111.452 240.753 110.588 240.466 109.706C240.253 109.07 239.962 108.522 239.569 108.064C239.176 107.607 238.704 107.279 238.151 107.055L239.343 106.666L238.678 104.587ZM238.525 110.047C238.692 110.566 238.73 111.073 238.626 111.564C238.521 112.054 238.296 112.501 237.938 112.885C237.581 113.268 237.107 113.552 236.524 113.745C235.95 113.933 235.392 113.977 234.877 113.875C234.361 113.774 233.905 113.555 233.533 113.217C233.162 112.879 232.893 112.45 232.726 111.93C232.56 111.411 232.521 110.904 232.626 110.413C232.73 109.923 232.962 109.486 233.313 109.093C233.671 108.709 234.139 108.416 234.728 108.232C235.302 108.045 235.859 108 236.375 108.102C236.891 108.204 237.347 108.422 237.719 108.76C238.084 109.089 238.359 109.527 238.525 110.047Z" fill="#9E845C"/>
<path d="M220.152 84.4147C209.952 69.4854 195.818 57.6742 179.29 50.2722L178.369 52.3235C194.527 59.5593 208.332 71.0992 218.301 85.6819L220.152 84.4147Z" fill="#9E845C"/>
<path d="M46.3124 135.202L44.0647 135.031C42.5944 153.401 46.3076 171.747 54.8113 188.085L56.806 187.047C48.5104 171.083 44.8727 153.154 46.3124 135.202Z" fill="#9E845C"/>
</g>
</svg>
